<svg width="128" height="128" viewBox="0 0 128 128" fill="none" xmlns="http://www.w3.org/2000/svg">
<path fill-rule="evenodd" clip-rule="evenodd" d="M63.75 121.125C95.4369 121.125 121.125 95.4369 121.125 63.75C121.125 32.0631 95.4369 6.375 63.75 6.375C32.0631 6.375 6.375 32.0631 6.375 63.75C6.375 95.4369 32.0631 121.125 63.75 121.125ZM63.75 127.5C98.9591 127.5 127.5 98.9591 127.5 63.75C127.5 28.5409 98.9591 0 63.75 0C28.5409 0 0 28.5409 0 63.75C0 98.9591 28.5409 127.5 63.75 127.5Z" fill="#564F4F"/>
<path d="M25.5 100.821C25.5 97.5282 27.9608 94.7455 31.2375 94.3821C55.8291 91.66 71.7825 91.9054 96.3199 94.4427C97.5452 94.5714 98.7065 95.0541 99.662 95.8319C100.617 96.6097 101.326 97.649 101.7 98.8227C102.075 99.9964 102.1 101.254 101.771 102.441C101.443 103.629 100.776 104.695 99.8516 105.51C70.8932 130.752 54.3437 130.404 27.54 105.535C26.2331 104.324 25.5 102.603 25.5 100.824V100.821Z" fill="#564F4F"/>
<path fill-rule="evenodd" clip-rule="evenodd" d="M95.9916 97.6112C71.6486 95.0931 55.9247 94.8572 31.585 97.5506C29.9466 97.7323 28.6875 99.1316 28.6875 100.824C28.6875 101.736 29.0668 102.6 29.7075 103.199C42.993 115.522 53.0591 121.09 62.899 121.125C72.7738 121.16 83.3818 115.636 97.7574 103.11C98.2141 102.703 98.5429 102.173 98.7038 101.583C98.8647 100.993 98.8508 100.369 98.6637 99.787C98.4767 99.205 98.1246 98.6897 97.6502 98.304C97.1758 97.9183 96.5996 97.6787 95.9916 97.6144V97.6112ZM30.8869 91.2139C55.7366 88.4631 71.9228 88.7117 96.6514 91.2712C98.4947 91.4636 100.242 92.1893 101.679 93.3595C103.116 94.5296 104.181 96.0934 104.744 97.8594C105.306 99.6255 105.341 101.517 104.844 103.303C104.348 105.088 103.342 106.691 101.949 107.913C87.3662 120.625 75.2218 127.548 62.8798 127.5C50.5028 127.456 38.8939 120.415 25.3757 107.872C24.4078 106.97 23.6363 105.879 23.1092 104.666C22.5822 103.452 22.3109 102.144 22.3125 100.821C22.3079 98.4445 23.1802 96.1498 24.7623 94.3765C26.3445 92.6032 28.5252 91.476 30.8869 91.2107V91.2139Z" fill="#564F4F"/>
<path d="M89.25 51C89.25 57.763 86.5634 64.249 81.7812 69.0312C76.999 73.8134 70.513 76.5 63.75 76.5C56.987 76.5 50.501 73.8134 45.7188 69.0312C40.9366 64.249 38.25 57.763 38.25 51C38.25 44.237 40.9366 37.751 45.7188 32.9688C50.501 28.1866 56.987 25.5 63.75 25.5C70.513 25.5 76.999 28.1866 81.7812 32.9688C86.5634 37.751 89.25 44.237 89.25 51Z" fill="#564F4F"/>
<path fill-rule="evenodd" clip-rule="evenodd" d="M63.75 70.125C68.8223 70.125 73.6868 68.1101 77.2734 64.5234C80.8601 60.9368 82.875 56.0723 82.875 51C82.875 45.9277 80.8601 41.0632 77.2734 37.4766C73.6868 33.8899 68.8223 31.875 63.75 31.875C58.6777 31.875 53.8132 33.8899 50.2266 37.4766C46.6399 41.0632 44.625 45.9277 44.625 51C44.625 56.0723 46.6399 60.9368 50.2266 64.5234C53.8132 68.1101 58.6777 70.125 63.75 70.125ZM63.75 76.5C70.513 76.5 76.999 73.8134 81.7812 69.0312C86.5634 64.249 89.25 57.763 89.25 51C89.25 44.237 86.5634 37.751 81.7812 32.9688C76.999 28.1866 70.513 25.5 63.75 25.5C56.987 25.5 50.501 28.1866 45.7188 32.9688C40.9366 37.751 38.25 44.237 38.25 51C38.25 57.763 40.9366 64.249 45.7188 69.0312C50.501 73.8134 56.987 76.5 63.75 76.5Z" fill="#564F4F"/>
</svg>
