<svg width="168" height="168" viewBox="0 0 168 168" fill="none" xmlns="http://www.w3.org/2000/svg">
<g clip-path="url(#clip0_55_14916)">
<rect width="168" height="168" fill="black"/>
<path d="M84.0295 -3.73633L84.0872 174.155" stroke="#AC946E" stroke-width="0.160832" stroke-miterlimit="10"/>
<path d="M76.3779 -3.40186L91.8303 173.807" stroke="#AC946E" stroke-width="0.160832" stroke-miterlimit="10"/>
<path d="M68.7781 -2.40137L99.5098 172.79" stroke="#AC946E" stroke-width="0.160832" stroke-miterlimit="10"/>
<path d="M61.2993 -0.717773L107.08 171.091" stroke="#AC946E" stroke-width="0.160832" stroke-miterlimit="10"/>
<path d="M53.9922 1.60498L114.475 168.74" stroke="#AC946E" stroke-width="0.160832" stroke-miterlimit="10"/>
<path d="M53.6452 1.83772C54.3537 1.83772 54.9281 1.25932 54.9281 0.545814C54.9281 -0.167687 54.3537 -0.746094 53.6452 -0.746094C52.9367 -0.746094 52.3623 -0.167687 52.3623 0.545814C52.3623 1.25932 52.9367 1.83772 53.6452 1.83772Z" fill="#AC946E"/>
<path d="M114.475 170.032C115.183 170.032 115.757 169.453 115.757 168.74C115.757 168.026 115.183 167.448 114.475 167.448C113.766 167.448 113.192 168.026 113.192 168.74C113.192 169.453 113.766 170.032 114.475 170.032Z" fill="#AC946E"/>
<path d="M46.9143 4.55029L121.625 165.763" stroke="#AC946E" stroke-width="0.160832" stroke-miterlimit="10"/>
<path d="M46.4777 4.82649C47.1862 4.82649 47.7606 4.24808 47.7606 3.53458C47.7606 2.82108 47.1862 2.24268 46.4777 2.24268C45.7692 2.24268 45.1948 2.82108 45.1948 3.53458C45.1948 4.24808 45.7692 4.82649 46.4777 4.82649Z" fill="#AC946E"/>
<path d="M121.625 167.055C122.333 167.055 122.908 166.476 122.908 165.763C122.908 165.049 122.333 164.471 121.625 164.471C120.916 164.471 120.342 165.049 120.342 165.763C120.342 166.476 120.916 167.055 121.625 167.055Z" fill="#AC946E"/>
<path d="M40.1113 8.12256L128.501 162.15" stroke="#AC946E" stroke-width="0.160832" stroke-miterlimit="10"/>
<path d="M39.5912 8.44124C40.2998 8.44124 40.8741 7.86283 40.8741 7.14933C40.8741 6.43583 40.2998 5.85742 39.5912 5.85742C38.8827 5.85742 38.3083 6.43583 38.3083 7.14933C38.3083 7.86283 38.8827 8.44124 39.5912 8.44124Z" fill="#AC946E"/>
<path d="M128.5 163.443C129.209 163.443 129.783 162.865 129.783 162.151C129.783 161.438 129.209 160.859 128.5 160.859C127.792 160.859 127.217 161.438 127.217 162.151C127.217 162.865 127.792 163.443 128.5 163.443Z" fill="#AC946E"/>
<path d="M33.6538 12.2734L135.031 157.954" stroke="#AC946E" stroke-width="0.160832" stroke-miterlimit="10"/>
<path d="M33.0444 12.6375C33.7529 12.6375 34.3273 12.0591 34.3273 11.3456C34.3273 10.6321 33.7529 10.0537 33.0444 10.0537C32.3358 10.0537 31.7615 10.6321 31.7615 11.3456C31.7615 12.0591 32.3358 12.6375 33.0444 12.6375Z" fill="#AC946E"/>
<path d="M135.027 159.247C135.736 159.247 136.31 158.669 136.31 157.955C136.31 157.241 135.736 156.663 135.027 156.663C134.319 156.663 133.744 157.241 133.744 157.955C133.744 158.669 134.319 159.247 135.027 159.247Z" fill="#AC946E"/>
<path d="M27.5835 16.9766L141.184 153.207" stroke="#AC946E" stroke-width="0.160832" stroke-miterlimit="10"/>
<path d="M26.8893 17.3836C27.5979 17.3836 28.1722 16.8052 28.1722 16.0917C28.1722 15.3782 27.5979 14.7998 26.8893 14.7998C26.1808 14.7998 25.6064 15.3782 25.6064 16.0917C25.6064 16.8052 26.1808 17.3836 26.8893 17.3836Z" fill="#AC946E"/>
<path d="M141.181 154.501C141.89 154.501 142.464 153.922 142.464 153.209C142.464 152.495 141.89 151.917 141.181 151.917C140.473 151.917 139.898 152.495 139.898 153.209C139.898 153.922 140.473 154.501 141.181 154.501Z" fill="#AC946E"/>
<path d="M21.9304 22.1875L146.89 147.938" stroke="#AC946E" stroke-width="0.160832" stroke-miterlimit="10"/>
<path d="M21.1684 22.6678C21.8769 22.6678 22.4513 22.0894 22.4513 21.3759C22.4513 20.6624 21.8769 20.084 21.1684 20.084C20.4599 20.084 19.8855 20.6624 19.8855 21.3759C19.8855 22.0894 20.4599 22.6678 21.1684 22.6678Z" fill="#AC946E"/>
<path d="M146.89 149.23C147.598 149.23 148.172 148.652 148.172 147.938C148.172 147.225 147.598 146.646 146.89 146.646C146.181 146.646 145.607 147.225 145.607 147.938C145.607 148.652 146.181 149.23 146.89 149.23Z" fill="#AC946E"/>
<path d="M16.7556 27.8779L152.122 142.175" stroke="#AC946E" stroke-width="0.160832" stroke-miterlimit="10"/>
<path d="M15.9384 28.429C16.6469 28.429 17.2213 27.8506 17.2213 27.1371C17.2213 26.4236 16.6469 25.8452 15.9384 25.8452C15.2299 25.8452 14.6555 26.4236 14.6555 27.1371C14.6555 27.8506 15.2299 28.429 15.9384 28.429Z" fill="#AC946E"/>
<path d="M152.126 143.467C152.835 143.467 153.409 142.889 153.409 142.175C153.409 141.462 152.835 140.883 152.126 140.883C151.418 140.883 150.843 141.462 150.843 142.175C150.843 142.889 151.418 143.467 152.126 143.467Z" fill="#AC946E"/>
<path d="M12.0879 34.0039L156.838 135.992" stroke="#AC946E" stroke-width="0.160832" stroke-miterlimit="10"/>
<path d="M11.2077 34.6297C11.9162 34.6297 12.4906 34.0513 12.4906 33.3378C12.4906 32.6243 11.9162 32.0459 11.2077 32.0459C10.4992 32.0459 9.9248 32.6243 9.9248 33.3378C9.9248 34.0513 10.4992 34.6297 11.2077 34.6297Z" fill="#AC946E"/>
<path d="M156.839 137.283C157.547 137.283 158.121 136.705 158.121 135.991C158.121 135.278 157.547 134.699 156.839 134.699C156.13 134.699 155.556 135.278 155.556 135.991C155.556 136.705 156.13 137.283 156.839 137.283Z" fill="#AC946E"/>
<path d="M7.97803 40.5078L160.988 129.403" stroke="#AC946E" stroke-width="0.160832" stroke-miterlimit="10"/>
<path d="M7.04119 41.2181C7.74971 41.2181 8.32408 40.6397 8.32408 39.9262C8.32408 39.2127 7.74971 38.6343 7.04119 38.6343C6.33267 38.6343 5.7583 39.2127 5.7583 39.9262C5.7583 40.6397 6.33267 41.2181 7.04119 41.2181Z" fill="#AC946E"/>
<path d="M160.989 130.694C161.698 130.694 162.272 130.116 162.272 129.402C162.272 128.689 161.698 128.11 160.989 128.11C160.281 128.11 159.707 128.689 159.707 129.402C159.707 130.116 160.281 130.694 160.989 130.694Z" fill="#AC946E"/>
<path d="M4.44702 47.3574L164.563 122.477" stroke="#AC946E" stroke-width="0.160832" stroke-miterlimit="10"/>
<path d="M3.45452 48.158C4.16304 48.158 4.73741 47.5796 4.73741 46.8661C4.73741 46.1526 4.16304 45.5742 3.45452 45.5742C2.746 45.5742 2.17163 46.1526 2.17163 46.8661C2.17163 47.5796 2.746 48.158 3.45452 48.158Z" fill="#AC946E"/>
<path d="M164.565 123.771C165.273 123.771 165.848 123.192 165.848 122.479C165.848 121.765 165.273 121.187 164.565 121.187C163.856 121.187 163.282 121.765 163.282 122.479C163.282 123.192 163.856 123.771 164.565 123.771Z" fill="#AC946E"/>
<path d="M1.50684 54.4858L167.533 115.264" stroke="#AC946E" stroke-width="0.160832" stroke-miterlimit="10"/>
<path d="M0.481378 55.3714C1.1899 55.3714 1.76427 54.793 1.76427 54.0795C1.76427 53.366 1.1899 52.7876 0.481378 52.7876C-0.227143 52.7876 -0.801514 53.366 -0.801514 54.0795C-0.801514 54.793 -0.227143 55.3714 0.481378 55.3714Z" fill="#AC946E"/>
<path d="M167.533 116.555C168.242 116.555 168.816 115.977 168.816 115.264C168.816 114.55 168.242 113.972 167.533 113.972C166.825 113.972 166.25 114.55 166.25 115.264C166.25 115.977 166.825 116.555 167.533 116.555Z" fill="#AC946E"/>
<path d="M-0.783691 61.8452L169.855 107.831" stroke="#AC946E" stroke-width="0.160832" stroke-miterlimit="10"/>
<path d="M-2.44482 69.3784L171.538 100.21" stroke="#AC946E" stroke-width="0.160832" stroke-miterlimit="10"/>
<path d="M-3.4375 77.0298L172.549 92.4746" stroke="#AC946E" stroke-width="0.160832" stroke-miterlimit="10"/>
<path d="M-3.76782 84.7372L172.882 84.6792" stroke="#AC946E" stroke-width="0.160832" stroke-miterlimit="10"/>
<path d="M-3.4375 92.4442L172.535 76.8833" stroke="#AC946E" stroke-width="0.160832" stroke-miterlimit="10"/>
<path d="M-2.44482 100.094L171.524 69.146" stroke="#AC946E" stroke-width="0.160832" stroke-miterlimit="10"/>
<path d="M-0.772461 107.627L169.838 61.5249" stroke="#AC946E" stroke-width="0.160832" stroke-miterlimit="10"/>
<path d="M1.53564 114.988L167.504 54.0942" stroke="#AC946E" stroke-width="0.160832" stroke-miterlimit="10"/>
<path d="M0.481378 116.629C1.1899 116.629 1.76427 116.051 1.76427 115.337C1.76427 114.624 1.1899 114.045 0.481378 114.045C-0.227143 114.045 -0.801514 114.624 -0.801514 115.337C-0.801514 116.051 -0.227143 116.629 0.481378 116.629Z" fill="#AC946E"/>
<path d="M167.505 55.3851C168.214 55.3851 168.788 54.8067 168.788 54.0932C168.788 53.3797 168.214 52.8013 167.505 52.8013C166.797 52.8013 166.222 53.3797 166.222 54.0932C166.222 54.8067 166.797 55.3851 167.505 55.3851Z" fill="#AC946E"/>
<path d="M4.46338 122.114L164.551 46.8789" stroke="#AC946E" stroke-width="0.160832" stroke-miterlimit="10"/>
<path d="M3.45452 123.856C4.16304 123.856 4.73741 123.278 4.73741 122.564C4.73741 121.851 4.16304 121.272 3.45452 121.272C2.746 121.272 2.17163 121.851 2.17163 122.564C2.17163 123.278 2.746 123.856 3.45452 123.856Z" fill="#AC946E"/>
<path d="M164.548 48.1722C165.256 48.1722 165.831 47.5938 165.831 46.8803C165.831 46.1668 165.256 45.5884 164.548 45.5884C163.839 45.5884 163.265 46.1668 163.265 46.8803C163.265 47.5938 163.839 48.1722 164.548 48.1722Z" fill="#AC946E"/>
<path d="M8.00537 128.966L160.958 39.9551" stroke="#AC946E" stroke-width="0.160832" stroke-miterlimit="10"/>
<path d="M7.04119 130.782C7.74971 130.782 8.32408 130.203 8.32408 129.49C8.32408 128.776 7.74971 128.198 7.04119 128.198C6.33267 128.198 5.7583 128.776 5.7583 129.49C5.7583 130.203 6.33267 130.782 7.04119 130.782Z" fill="#AC946E"/>
<path d="M160.962 41.2469C161.67 41.2469 162.245 40.6685 162.245 39.955C162.245 39.2415 161.67 38.6631 160.962 38.6631C160.253 38.6631 159.679 39.2415 159.679 39.955C159.679 40.6685 160.253 41.2469 160.962 41.2469Z" fill="#AC946E"/>
<path d="M12.1318 135.471L156.796 33.3809" stroke="#AC946E" stroke-width="0.160832" stroke-miterlimit="10"/>
<path d="M11.2077 137.371C11.9162 137.371 12.4906 136.793 12.4906 136.08C12.4906 135.366 11.9162 134.788 11.2077 134.788C10.4992 134.788 9.9248 135.366 9.9248 136.08C9.9248 136.793 10.4992 137.371 11.2077 137.371Z" fill="#AC946E"/>
<path d="M156.794 34.6717C157.503 34.6717 158.077 34.0933 158.077 33.3798C158.077 32.6663 157.503 32.0879 156.794 32.0879C156.086 32.0879 155.511 32.6663 155.511 33.3798C155.511 34.0933 156.086 34.6717 156.794 34.6717Z" fill="#AC946E"/>
<path d="M16.8003 141.596L152.08 27.1973" stroke="#AC946E" stroke-width="0.160832" stroke-miterlimit="10"/>
<path d="M15.9201 143.569C16.6286 143.569 17.203 142.99 17.203 142.277C17.203 141.563 16.6286 140.985 15.9201 140.985C15.2116 140.985 14.6372 141.563 14.6372 142.277C14.6372 142.99 15.2116 143.569 15.9201 143.569Z" fill="#AC946E"/>
<path d="M152.081 28.4881C152.79 28.4881 153.364 27.9097 153.364 27.1962C153.364 26.4827 152.79 25.9043 152.081 25.9043C151.373 25.9043 150.799 26.4827 150.799 27.1962C150.799 27.9097 151.373 28.4881 152.081 28.4881Z" fill="#AC946E"/>
<path d="M21.9753 147.285L146.848 21.4473" stroke="#AC946E" stroke-width="0.160832" stroke-miterlimit="10"/>
<path d="M21.1684 149.333C21.8769 149.333 22.4513 148.754 22.4513 148.041C22.4513 147.327 21.8769 146.749 21.1684 146.749C20.4599 146.749 19.8855 147.327 19.8855 148.041C19.8855 148.754 20.4599 149.333 21.1684 149.333Z" fill="#AC946E"/>
<path d="M146.85 22.7391C147.559 22.7391 148.133 22.1607 148.133 21.4472C148.133 20.7337 147.559 20.1553 146.85 20.1553C146.142 20.1553 145.567 20.7337 145.567 21.4472C145.567 22.1607 146.142 22.7391 146.85 22.7391Z" fill="#AC946E"/>
<path d="M27.6284 152.498L141.128 16.1797" stroke="#AC946E" stroke-width="0.160832" stroke-miterlimit="10"/>
<path d="M26.8893 154.617C27.5979 154.617 28.1722 154.039 28.1722 153.325C28.1722 152.612 27.5979 152.033 26.8893 152.033C26.1808 152.033 25.6064 152.612 25.6064 153.325C25.6064 154.039 26.1808 154.617 26.8893 154.617Z" fill="#AC946E"/>
<path d="M141.125 17.4705C141.833 17.4705 142.408 16.8921 142.408 16.1786C142.408 15.4651 141.833 14.8867 141.125 14.8867C140.416 14.8867 139.842 15.4651 139.842 16.1786C139.842 16.8921 140.416 17.4705 141.125 17.4705Z" fill="#AC946E"/>
<path d="M33.709 157.185L134.985 11.4316" stroke="#AC946E" stroke-width="0.160832" stroke-miterlimit="10"/>
<path d="M33.0444 159.363C33.7529 159.363 34.3273 158.785 34.3273 158.071C34.3273 157.358 33.7529 156.779 33.0444 156.779C32.3358 156.779 31.7615 157.358 31.7615 158.071C31.7615 158.785 32.3358 159.363 33.0444 159.363Z" fill="#AC946E"/>
<path d="M134.987 12.7244C135.696 12.7244 136.27 12.146 136.27 11.4325C136.27 10.719 135.696 10.1406 134.987 10.1406C134.279 10.1406 133.704 10.719 133.704 11.4325C133.704 12.146 134.279 12.7244 134.987 12.7244Z" fill="#AC946E"/>
<path d="M40.1682 161.323L128.443 7.23779" stroke="#AC946E" stroke-width="0.160832" stroke-miterlimit="10"/>
<path d="M39.5912 163.573C40.2998 163.573 40.8741 162.995 40.8741 162.281C40.8741 161.568 40.2998 160.989 39.5912 160.989C38.8827 160.989 38.3083 161.568 38.3083 162.281C38.3083 162.995 38.8827 163.573 39.5912 163.573Z" fill="#AC946E"/>
<path d="M128.438 8.52864C129.147 8.52864 129.721 7.95023 129.721 7.23673C129.721 6.52323 129.147 5.94482 128.438 5.94482C127.73 5.94482 127.156 6.52323 127.156 7.23673C127.156 7.95023 127.73 8.52864 128.438 8.52864Z" fill="#AC946E"/>
<path d="M46.9695 164.893L121.565 3.63721" stroke="#AC946E" stroke-width="0.160832" stroke-miterlimit="10"/>
<path d="M46.4777 167.171C47.1862 167.171 47.7606 166.592 47.7606 165.879C47.7606 165.165 47.1862 164.587 46.4777 164.587C45.7692 164.587 45.1948 165.165 45.1948 165.879C45.1948 166.592 45.7692 167.171 46.4777 167.171Z" fill="#AC946E"/>
<path d="M121.565 4.92854C122.273 4.92854 122.848 4.35013 122.848 3.63663C122.848 2.92313 122.273 2.34473 121.565 2.34473C120.856 2.34473 120.282 2.92313 120.282 3.63663C120.282 4.35013 120.856 4.92854 121.565 4.92854Z" fill="#AC946E"/>
<path d="M54.0469 167.84L114.4 0.646484" stroke="#AC946E" stroke-width="0.160832" stroke-miterlimit="10"/>
<path d="M53.6452 170.162C54.3537 170.162 54.9281 169.584 54.9281 168.871C54.9281 168.157 54.3537 167.579 53.6452 167.579C52.9367 167.579 52.3623 168.157 52.3623 168.871C52.3623 169.584 52.9367 170.162 53.6452 170.162Z" fill="#AC946E"/>
<path d="M114.401 1.93733C115.109 1.93733 115.684 1.35892 115.684 0.645423C115.684 -0.0680779 115.109 -0.646484 114.401 -0.646484C113.692 -0.646484 113.118 -0.0680779 113.118 0.645423C113.118 1.35892 113.692 1.93733 114.401 1.93733Z" fill="#AC946E"/>
<path d="M61.3564 170.163L107.022 -1.68994" stroke="#AC946E" stroke-width="0.160832" stroke-miterlimit="10"/>
<path d="M68.8384 171.832L99.4548 -3.37402" stroke="#AC946E" stroke-width="0.160832" stroke-miterlimit="10"/>
<path d="M76.4346 172.834L91.7716 -4.38916" stroke="#AC946E" stroke-width="0.160832" stroke-miterlimit="10"/>
<path d="M75.1489 13.9604L93.056 156.222" stroke="#AC946E" stroke-width="0.160832" stroke-miterlimit="10"/>
<path d="M75.1885 14.0963C75.7551 14.0251 76.1564 13.5049 76.0848 12.9343C76.0131 12.3637 75.4957 11.9587 74.9291 12.0299C74.3624 12.101 73.9612 12.6213 74.0328 13.1919C74.1044 13.7625 74.6219 14.1674 75.1885 14.0963Z" fill="#AC946E"/>
<path d="M93.1846 157.255C93.7512 157.184 94.1525 156.664 94.0809 156.093C94.0092 155.522 93.4918 155.117 92.9252 155.189C92.3585 155.26 91.9572 155.78 92.0289 156.351C92.1005 156.921 92.6179 157.326 93.1846 157.255Z" fill="#AC946E"/>
<path d="M69.0635 14.9961L99.2139 155.167" stroke="#AC946E" stroke-width="0.160832" stroke-miterlimit="10"/>
<path d="M69.0215 15.1422C69.5881 15.071 69.9894 14.5508 69.9178 13.9802C69.8461 13.4096 69.3287 13.0046 68.7621 13.0758C68.1954 13.1469 67.7942 13.6672 67.8658 14.2378C67.9374 14.8084 68.4549 15.2133 69.0215 15.1422Z" fill="#AC946E"/>
<path d="M99.3416 156.199C99.9082 156.128 100.309 155.607 100.238 155.037C100.166 154.466 99.6488 154.061 99.0821 154.132C98.5155 154.204 98.1142 154.724 98.1859 155.294C98.2575 155.865 98.7749 156.27 99.3416 156.199Z" fill="#AC946E"/>
<path d="M63.0857 16.5596L105.253 153.582" stroke="#AC946E" stroke-width="0.160832" stroke-miterlimit="10"/>
<path d="M62.9802 16.7374C63.5469 16.6663 63.9481 16.146 63.8765 15.5754C63.8049 15.0048 63.2874 14.5999 62.7208 14.671C62.1542 14.7421 61.7529 15.2624 61.8245 15.833C61.8962 16.4036 62.4136 16.8085 62.9802 16.7374Z" fill="#AC946E"/>
<path d="M105.386 154.616C105.953 154.545 106.354 154.024 106.283 153.454C106.211 152.883 105.694 152.478 105.127 152.549C104.56 152.621 104.159 153.141 104.231 153.711C104.302 154.282 104.82 154.687 105.386 154.616Z" fill="#AC946E"/>
<path d="M57.2744 18.6567L111.137 151.464" stroke="#AC946E" stroke-width="0.160832" stroke-miterlimit="10"/>
<path d="M57.0855 18.8453C57.6521 18.7742 58.0534 18.2539 57.9817 17.6833C57.9101 17.1127 57.3927 16.7078 56.826 16.7789C56.2594 16.85 55.8581 17.3703 55.9298 17.9409C56.0014 18.5115 56.5188 18.9164 57.0855 18.8453Z" fill="#AC946E"/>
<path d="M111.268 152.497C111.834 152.426 112.235 151.906 112.164 151.335C112.092 150.765 111.575 150.36 111.008 150.431C110.442 150.502 110.04 151.022 110.112 151.593C110.184 152.163 110.701 152.568 111.268 152.497Z" fill="#AC946E"/>
<path d="M51.6628 21.248L116.815 148.841" stroke="#AC946E" stroke-width="0.160832" stroke-miterlimit="10"/>
<path d="M51.4097 21.4688C51.9763 21.3977 52.3776 20.8774 52.306 20.3068C52.2343 19.7362 51.7169 19.3313 51.1503 19.4024C50.5836 19.4736 50.1823 19.9938 50.254 20.5644C50.3256 21.1351 50.843 21.54 51.4097 21.4688Z" fill="#AC946E"/>
<path d="M116.945 149.874C117.511 149.802 117.913 149.282 117.841 148.712C117.769 148.141 117.252 147.736 116.685 147.807C116.119 147.878 115.717 148.399 115.789 148.969C115.861 149.54 116.378 149.945 116.945 149.874Z" fill="#AC946E"/>
<path d="M46.2983 24.3145L122.234 145.742" stroke="#AC946E" stroke-width="0.160832" stroke-miterlimit="10"/>
<path d="M45.9778 24.5787C46.5444 24.5076 46.9457 23.9873 46.8741 23.4167C46.8024 22.8461 46.285 22.4412 45.7184 22.5123C45.1517 22.5834 44.7505 23.1037 44.8221 23.6743C44.8937 24.2449 45.4112 24.6498 45.9778 24.5787Z" fill="#AC946E"/>
<path d="M122.364 146.775C122.93 146.704 123.332 146.184 123.26 145.613C123.188 145.042 122.671 144.637 122.104 144.709C121.538 144.78 121.136 145.3 121.208 145.871C121.28 146.441 121.797 146.846 122.364 146.775Z" fill="#AC946E"/>
<path d="M41.2163 27.854L127.371 142.162" stroke="#AC946E" stroke-width="0.160832" stroke-miterlimit="10"/>
<path d="M40.8325 28.1607C41.3992 28.0896 41.8004 27.5693 41.7288 26.9987C41.6572 26.4281 41.1397 26.0232 40.5731 26.0943C40.0065 26.1655 39.6052 26.6857 39.6768 27.2563C39.7485 27.827 40.2659 28.2319 40.8325 28.1607Z" fill="#AC946E"/>
<path d="M127.5 143.196C128.066 143.125 128.468 142.605 128.396 142.034C128.324 141.464 127.807 141.059 127.24 141.13C126.674 141.201 126.272 141.721 126.344 142.292C126.416 142.863 126.933 143.268 127.5 143.196Z" fill="#AC946E"/>
<path d="M36.4688 31.8218L132.172 138.15" stroke="#AC946E" stroke-width="0.160832" stroke-miterlimit="10"/>
<path d="M36.0183 32.1744C36.585 32.1033 36.9862 31.583 36.9146 31.0124C36.843 30.4418 36.3255 30.0369 35.7589 30.108C35.1923 30.1791 34.791 30.6994 34.8626 31.27C34.9343 31.8406 35.4517 32.2455 36.0183 32.1744Z" fill="#AC946E"/>
<path d="M132.298 139.185C132.865 139.114 133.266 138.594 133.195 138.023C133.123 137.453 132.606 137.048 132.039 137.119C131.472 137.19 131.071 137.71 131.143 138.281C131.214 138.851 131.732 139.256 132.298 139.185Z" fill="#AC946E"/>
<path d="M32.0874 36.1929L136.617 133.737" stroke="#AC946E" stroke-width="0.160832" stroke-miterlimit="10"/>
<path d="M31.5728 36.588C32.1394 36.5168 32.5407 35.9966 32.469 35.426C32.3974 34.8554 31.88 34.4504 31.3133 34.5216C30.7467 34.5927 30.3454 35.113 30.4171 35.6836C30.4887 36.2542 31.0061 36.6591 31.5728 36.588Z" fill="#AC946E"/>
<path d="M136.744 134.772C137.311 134.7 137.712 134.18 137.64 133.61C137.569 133.039 137.051 132.634 136.484 132.705C135.918 132.776 135.517 133.297 135.588 133.867C135.66 134.438 136.177 134.843 136.744 134.772Z" fill="#AC946E"/>
<path d="M28.0891 40.9277L140.651 128.95" stroke="#AC946E" stroke-width="0.160832" stroke-miterlimit="10"/>
<path d="M27.5274 41.3883C28.094 41.3171 28.4953 40.7969 28.4236 40.2263C28.352 39.6556 27.8346 39.2507 27.2679 39.3219C26.7013 39.393 26.3 39.9133 26.3717 40.4839C26.4433 41.0545 26.9607 41.4594 27.5274 41.3883Z" fill="#AC946E"/>
<path d="M140.78 129.983C141.347 129.912 141.748 129.392 141.677 128.821C141.605 128.25 141.087 127.845 140.521 127.917C139.954 127.988 139.553 128.508 139.625 129.079C139.696 129.649 140.214 130.054 140.78 129.983Z" fill="#AC946E"/>
<path d="M24.5212 45.9985L144.256 123.816" stroke="#AC946E" stroke-width="0.160832" stroke-miterlimit="10"/>
<path d="M23.9231 46.5211C24.4897 46.4499 24.891 45.9297 24.8194 45.3591C24.7477 44.7885 24.2303 44.3836 23.6637 44.4547C23.097 44.5258 22.6958 45.0461 22.7674 45.6167C22.839 46.1873 23.3565 46.5922 23.9231 46.5211Z" fill="#AC946E"/>
<path d="M144.389 124.848C144.956 124.777 145.357 124.257 145.285 123.686C145.214 123.116 144.696 122.711 144.13 122.782C143.563 122.853 143.162 123.373 143.233 123.944C143.305 124.514 143.822 124.919 144.389 124.848Z" fill="#AC946E"/>
<path d="M21.4031 51.3662L147.407 118.397" stroke="#AC946E" stroke-width="0.160832" stroke-miterlimit="10"/>
<path d="M20.7622 51.9552C21.3289 51.884 21.7301 51.3638 21.6585 50.7932C21.5869 50.2225 21.0694 49.8176 20.5028 49.8888C19.9362 49.9599 19.5349 50.4802 19.6065 51.0508C19.6782 51.6214 20.1956 52.0263 20.7622 51.9552Z" fill="#AC946E"/>
<path d="M147.536 119.43C148.103 119.359 148.504 118.838 148.433 118.268C148.361 117.697 147.844 117.292 147.277 117.363C146.71 117.435 146.309 117.955 146.381 118.525C146.452 119.096 146.97 119.501 147.536 119.43Z" fill="#AC946E"/>
<path d="M18.7695 56.9805L150.064 112.711" stroke="#AC946E" stroke-width="0.160832" stroke-miterlimit="10"/>
<path d="M18.0918 57.6422C18.6584 57.571 19.0597 57.0508 18.9881 56.4802C18.9164 55.9096 18.399 55.5046 17.8324 55.5758C17.2657 55.6469 16.8645 56.1672 16.9361 56.7378C17.0077 57.3084 17.5252 57.7133 18.0918 57.6422Z" fill="#AC946E"/>
<path d="M150.195 113.743C150.762 113.672 151.163 113.152 151.091 112.581C151.02 112.011 150.502 111.606 149.936 111.677C149.369 111.748 148.968 112.268 149.039 112.839C149.111 113.409 149.628 113.814 150.195 113.743Z" fill="#AC946E"/>
<path d="M16.6335 62.813L152.228 106.813" stroke="#AC946E" stroke-width="0.160832" stroke-miterlimit="10"/>
<path d="M15.9197 63.5523C16.4863 63.4812 16.8876 62.9609 16.816 62.3903C16.7443 61.8197 16.2269 61.4148 15.6603 61.4859C15.0936 61.5571 14.6924 62.0773 14.764 62.6479C14.8356 63.2186 15.3531 63.6235 15.9197 63.5523Z" fill="#AC946E"/>
<path d="M152.359 107.847C152.926 107.776 153.327 107.256 153.256 106.685C153.184 106.115 152.667 105.71 152.1 105.781C151.533 105.852 151.132 106.372 151.204 106.943C151.275 107.513 151.793 107.918 152.359 107.847Z" fill="#AC946E"/>
<path d="M14.9976 68.8086L153.879 100.745" stroke="#AC946E" stroke-width="0.160832" stroke-miterlimit="10"/>
<path d="M14.2669 69.6202C14.8335 69.5491 15.2348 69.0288 15.1631 68.4582C15.0915 67.8876 14.5741 67.4827 14.0074 67.5538C13.4408 67.6249 13.0395 68.1452 13.1112 68.7158C13.1828 69.2864 13.7002 69.6913 14.2669 69.6202Z" fill="#AC946E"/>
<path d="M154.009 101.779C154.575 101.708 154.977 101.188 154.905 100.617C154.833 100.046 154.316 99.6414 153.749 99.7125C153.183 99.7836 152.781 100.304 152.853 100.875C152.925 101.445 153.442 101.85 154.009 101.779Z" fill="#AC946E"/>
<path d="M13.905 74.9243L154.99 94.5686" stroke="#AC946E" stroke-width="0.160832" stroke-miterlimit="10"/>
<path d="M13.1499 75.8101C13.7165 75.739 14.1178 75.2188 14.0462 74.6481C13.9745 74.0775 13.4571 73.6726 12.8905 73.7438C12.3239 73.8149 11.9226 74.3351 11.9942 74.9058C12.0659 75.4764 12.5833 75.8813 13.1499 75.8101Z" fill="#AC946E"/>
<path d="M155.117 95.6036C155.684 95.5325 156.085 95.0122 156.013 94.4416C155.942 93.871 155.424 93.4661 154.858 93.5372C154.291 93.6083 153.89 94.1286 153.961 94.6992C154.033 95.2698 154.55 95.6747 155.117 95.6036Z" fill="#AC946E"/>
<path d="M13.3328 81.1157L155.571 88.3045" stroke="#AC946E" stroke-width="0.160832" stroke-miterlimit="10"/>
<path d="M12.5789 82.0841C13.1455 82.0129 13.5468 81.4927 13.4751 80.9221C13.4035 80.3514 12.8861 79.9465 12.3194 80.0177C11.7528 80.0888 11.3515 80.6091 11.4232 81.1797C11.4948 81.7503 12.0122 82.1552 12.5789 82.0841Z" fill="#AC946E"/>
<path d="M155.702 89.339C156.269 89.2678 156.67 88.7476 156.598 88.1769C156.527 87.6063 156.009 87.2014 155.442 87.2726C154.876 87.3437 154.475 87.8639 154.546 88.4346C154.618 89.0052 155.135 89.4101 155.702 89.339Z" fill="#AC946E"/>
<path d="M13.3069 87.3345L155.602 82.0166" stroke="#AC946E" stroke-width="0.160832" stroke-miterlimit="10"/>
<path d="M12.5361 88.3746C13.1028 88.3035 13.5041 87.7832 13.4324 87.2126C13.3608 86.642 12.8434 86.2371 12.2767 86.3082C11.7101 86.3793 11.3088 86.8996 11.3804 87.4702C11.4521 88.0408 11.9695 88.4457 12.5361 88.3746Z" fill="#AC946E"/>
<path d="M155.733 83.0504C156.299 82.9792 156.701 82.459 156.629 81.8884C156.557 81.3178 156.04 80.9128 155.473 80.984C154.907 81.0551 154.505 81.5754 154.577 82.146C154.649 82.7166 155.166 83.1215 155.733 83.0504Z" fill="#AC946E"/>
<path d="M13.8166 93.5317L155.086 75.749" stroke="#AC946E" stroke-width="0.160832" stroke-miterlimit="10"/>
<path d="M13.0552 94.6524C13.6218 94.5813 14.0231 94.061 13.9515 93.4904C13.8798 92.9198 13.3624 92.5149 12.7958 92.586C12.2291 92.6572 11.8278 93.1774 11.8995 93.748C11.9711 94.3187 12.4886 94.7236 13.0552 94.6524Z" fill="#AC946E"/>
<path d="M155.214 76.7823C155.781 76.7112 156.182 76.1909 156.111 75.6203C156.039 75.0497 155.522 74.6448 154.955 74.7159C154.388 74.7871 153.987 75.3073 154.059 75.8779C154.13 76.4485 154.648 76.8535 155.214 76.7823Z" fill="#AC946E"/>
<path d="M14.8549 99.6626L154.025 69.5494" stroke="#AC946E" stroke-width="0.160832" stroke-miterlimit="10"/>
<path d="M14.1055 100.866C14.6721 100.795 15.0734 100.274 15.0018 99.7038C14.9301 99.1332 14.4127 98.7283 13.8461 98.7994C13.2794 98.8706 12.8781 99.3908 12.9498 99.9614C13.0214 100.532 13.5388 100.937 14.1055 100.866Z" fill="#AC946E"/>
<path d="M154.155 70.5836C154.721 70.5124 155.122 69.9922 155.051 69.4216C154.979 68.851 154.462 68.4461 153.895 68.5172C153.328 68.5883 152.927 69.1086 152.999 69.6792C153.07 70.2498 153.588 70.6547 154.155 70.5836Z" fill="#AC946E"/>
<path d="M16.4168 105.68L152.44 63.463" stroke="#AC946E" stroke-width="0.160832" stroke-miterlimit="10"/>
<path d="M15.7019 106.962C16.2686 106.89 16.6698 106.37 16.5982 105.8C16.5265 105.229 16.0091 104.824 15.4425 104.895C14.8759 104.966 14.4746 105.487 14.5462 106.057C14.6179 106.628 15.1353 107.033 15.7019 106.962Z" fill="#AC946E"/>
<path d="M152.571 64.4972C153.138 64.426 153.539 63.9058 153.468 63.3352C153.396 62.7645 152.879 62.3596 152.312 62.4308C151.745 62.5019 151.344 63.0221 151.416 63.5928C151.487 64.1634 152.005 64.5683 152.571 64.4972Z" fill="#AC946E"/>
<path d="M18.51 111.537L150.326 57.5375" stroke="#AC946E" stroke-width="0.160832" stroke-miterlimit="10"/>
<path d="M17.8052 112.888C18.3718 112.817 18.7731 112.297 18.7015 111.726C18.6298 111.156 18.1124 110.751 17.5458 110.822C16.9791 110.893 16.5778 111.413 16.6495 111.984C16.7211 112.555 17.2386 112.959 17.8052 112.888Z" fill="#AC946E"/>
<path d="M150.459 58.5719C151.025 58.5007 151.426 57.9805 151.355 57.4099C151.283 56.8392 150.766 56.4343 150.199 56.5055C149.632 56.5766 149.231 57.0969 149.303 57.6675C149.374 58.2381 149.892 58.643 150.459 58.5719Z" fill="#AC946E"/>
<path d="M21.0952 117.192L147.714 51.8287" stroke="#AC946E" stroke-width="0.160832" stroke-miterlimit="10"/>
<path d="M20.4168 118.611C20.9834 118.54 21.3847 118.02 21.313 117.449C21.2414 116.878 20.724 116.473 20.1573 116.545C19.5907 116.616 19.1894 117.136 19.2611 117.707C19.3327 118.277 19.8501 118.682 20.4168 118.611Z" fill="#AC946E"/>
<path d="M147.844 52.8614C148.411 52.7903 148.812 52.27 148.741 51.6994C148.669 51.1288 148.152 50.7239 147.585 50.795C147.018 50.8662 146.617 51.3864 146.689 51.957C146.76 52.5276 147.278 52.9326 147.844 52.8614Z" fill="#AC946E"/>
<path d="M24.1523 122.598L144.628 46.3553" stroke="#AC946E" stroke-width="0.160832" stroke-miterlimit="10"/>
<path d="M23.5205 124.092C24.0872 124.021 24.4884 123.501 24.4168 122.93C24.3452 122.359 23.8277 121.954 23.2611 122.025C22.6945 122.097 22.2932 122.617 22.3648 123.187C22.4365 123.758 22.9539 124.163 23.5205 124.092Z" fill="#AC946E"/>
<path d="M144.755 47.3897C145.322 47.3186 145.723 46.7983 145.651 46.2277C145.58 45.6571 145.062 45.2522 144.496 45.3233C143.929 45.3945 143.528 45.9147 143.599 46.4853C143.671 47.056 144.188 47.4609 144.755 47.3897Z" fill="#AC946E"/>
<path d="M27.6729 127.722L141.059 41.1786" stroke="#AC946E" stroke-width="0.160832" stroke-miterlimit="10"/>
<path d="M27.0838 129.27C27.6504 129.199 28.0517 128.679 27.98 128.108C27.9084 127.537 27.391 127.133 26.8243 127.204C26.2577 127.275 25.8564 127.795 25.9281 128.366C25.9997 128.936 26.5171 129.341 27.0838 129.27Z" fill="#AC946E"/>
<path d="M141.191 42.211C141.758 42.1399 142.159 41.6196 142.087 41.049C142.016 40.4784 141.498 40.0735 140.932 40.1446C140.365 40.2158 139.964 40.736 140.035 41.3066C140.107 41.8773 140.625 42.2822 141.191 42.211Z" fill="#AC946E"/>
<path d="M31.6264 132.509L137.071 36.3384" stroke="#AC946E" stroke-width="0.160832" stroke-miterlimit="10"/>
<path d="M31.0784 134.122C31.645 134.051 32.0463 133.531 31.9747 132.96C31.903 132.39 31.3856 131.985 30.819 132.056C30.2523 132.127 29.851 132.647 29.9227 133.218C29.9943 133.788 30.5117 134.193 31.0784 134.122Z" fill="#AC946E"/>
<path d="M137.199 37.3712C137.765 37.3 138.166 36.7798 138.095 36.2092C138.023 35.6386 137.506 35.2336 136.939 35.3048C136.372 35.3759 135.971 35.8962 136.043 36.4668C136.114 37.0374 136.632 37.4423 137.199 37.3712Z" fill="#AC946E"/>
<path d="M35.9747 136.94L132.678 31.867" stroke="#AC946E" stroke-width="0.160832" stroke-miterlimit="10"/>
<path d="M35.469 138.606C36.0356 138.534 36.4369 138.014 36.3653 137.444C36.2936 136.873 35.7762 136.468 35.2096 136.539C34.6429 136.61 34.2417 137.131 34.3133 137.701C34.3849 138.272 34.9024 138.677 35.469 138.606Z" fill="#AC946E"/>
<path d="M132.81 32.899C133.376 32.8279 133.778 32.3076 133.706 31.737C133.634 31.1664 133.117 30.7615 132.55 30.8326C131.984 30.9038 131.582 31.424 131.654 31.9946C131.726 32.5652 132.243 32.9702 132.81 32.899Z" fill="#AC946E"/>
<path d="M40.6846 140.969L127.917 27.7938" stroke="#AC946E" stroke-width="0.160832" stroke-miterlimit="10"/>
<path d="M40.2451 142.688C40.8118 142.617 41.213 142.097 41.1414 141.526C41.0698 140.955 40.5523 140.551 39.9857 140.622C39.4191 140.693 39.0178 141.213 39.0894 141.784C39.1611 142.354 39.6785 142.759 40.2451 142.688Z" fill="#AC946E"/>
<path d="M128.048 28.8263C128.615 28.7551 129.016 28.2349 128.944 27.6643C128.873 27.0936 128.355 26.6887 127.789 26.7599C127.222 26.831 126.821 27.3512 126.892 27.9219C126.964 28.4925 127.481 28.8974 128.048 28.8263Z" fill="#AC946E"/>
<path d="M45.7289 144.571L122.813 24.1554" stroke="#AC946E" stroke-width="0.160832" stroke-miterlimit="10"/>
<path d="M45.3511 146.339C45.9177 146.268 46.319 145.748 46.2474 145.177C46.1757 144.607 45.6583 144.202 45.0917 144.273C44.525 144.344 44.1237 144.864 44.1954 145.435C44.267 146.006 44.7844 146.411 45.3511 146.339Z" fill="#AC946E"/>
<path d="M122.94 25.1881C123.506 25.1169 123.908 24.5967 123.836 24.0261C123.764 23.4555 123.247 23.0505 122.68 23.1217C122.114 23.1928 121.712 23.7131 121.784 24.2837C121.856 24.8543 122.373 25.2592 122.94 25.1881Z" fill="#AC946E"/>
<path d="M51.0627 147.708L117.424 20.9745" stroke="#AC946E" stroke-width="0.160832" stroke-miterlimit="10"/>
<path d="M50.75 149.518C51.3166 149.447 51.7179 148.926 51.6463 148.356C51.5746 147.785 51.0572 147.38 50.4906 147.451C49.924 147.522 49.5227 148.043 49.5943 148.613C49.666 149.184 50.1834 149.589 50.75 149.518Z" fill="#AC946E"/>
<path d="M117.555 22.0084C118.122 21.9372 118.523 21.417 118.451 20.8464C118.38 20.2758 117.862 19.8709 117.296 19.942C116.729 20.0131 116.328 20.5334 116.399 21.104C116.471 21.6746 116.989 22.0795 117.555 22.0084Z" fill="#AC946E"/>
<path d="M56.6439 150.37L111.77 18.2775" stroke="#AC946E" stroke-width="0.160832" stroke-miterlimit="10"/>
<path d="M56.4094 152.227C56.9761 152.156 57.3773 151.636 57.3057 151.065C57.2341 150.495 56.7166 150.09 56.15 150.161C55.5834 150.232 55.1821 150.752 55.2537 151.323C55.3254 151.893 55.8428 152.298 56.4094 152.227Z" fill="#AC946E"/>
<path d="M111.896 19.3106C112.462 19.2395 112.864 18.7192 112.792 18.1486C112.72 17.578 112.203 17.1731 111.636 17.2442C111.07 17.3154 110.668 17.8356 110.74 18.4062C110.812 18.9769 111.329 19.3818 111.896 19.3106Z" fill="#AC946E"/>
<path d="M62.4417 152.542L105.908 16.089" stroke="#AC946E" stroke-width="0.160832" stroke-miterlimit="10"/>
<path d="M62.2771 154.413C62.8437 154.342 63.245 153.821 63.1734 153.251C63.1017 152.68 62.5843 152.275 62.0177 152.346C61.451 152.417 61.0498 152.938 61.1214 153.508C61.193 154.079 61.7105 154.484 62.2771 154.413Z" fill="#AC946E"/>
<path d="M106.038 17.1217C106.604 17.0505 107.006 16.5303 106.934 15.9597C106.862 15.389 106.345 14.9841 105.778 15.0553C105.212 15.1264 104.81 15.6467 104.882 16.2173C104.954 16.7879 105.471 17.1928 106.038 17.1217Z" fill="#AC946E"/>
<path d="M68.397 154.188L99.8775 14.4163" stroke="#AC946E" stroke-width="0.160832" stroke-miterlimit="10"/>
<path d="M68.3096 156.086C68.8762 156.015 69.2775 155.495 69.2059 154.924C69.1342 154.353 68.6168 153.948 68.0502 154.02C67.4835 154.091 67.0822 154.611 67.1539 155.182C67.2255 155.752 67.7429 156.157 68.3096 156.086Z" fill="#AC946E"/>
<path d="M100.008 15.4488C100.575 15.3777 100.976 14.8574 100.905 14.2868C100.833 13.7162 100.316 13.3113 99.7489 13.3824C99.1822 13.4536 98.781 13.9738 98.8526 14.5444C98.9243 15.115 99.4417 15.52 100.008 15.4488Z" fill="#AC946E"/>
<path d="M74.4761 155.312L93.7419 13.2886" stroke="#AC946E" stroke-width="0.160832" stroke-miterlimit="10"/>
<path d="M74.459 157.225C75.0256 157.154 75.4269 156.633 75.3553 156.063C75.2836 155.492 74.7662 155.087 74.1996 155.158C73.6329 155.229 73.2317 155.75 73.3033 156.32C73.3749 156.891 73.8924 157.296 74.459 157.225Z" fill="#AC946E"/>
<path d="M93.8711 14.3214C94.4377 14.2502 94.839 13.73 94.7674 13.1594C94.6957 12.5888 94.1783 12.1838 93.6117 12.255C93.045 12.3261 92.6438 12.8464 92.7154 13.417C92.787 13.9876 93.3045 14.3925 93.8711 14.3214Z" fill="#AC946E"/>
<path d="M80.628 155.895L87.5219 12.7014" stroke="#AC946E" stroke-width="0.160832" stroke-miterlimit="10"/>
<path d="M80.6919 157.822C81.2585 157.751 81.6598 157.231 81.5882 156.66C81.5165 156.09 80.9991 155.685 80.4325 155.756C79.8658 155.827 79.4646 156.347 79.5362 156.918C79.6078 157.489 80.1253 157.893 80.6919 157.822Z" fill="#AC946E"/>
<path d="M87.6497 13.7345C88.2163 13.6633 88.6176 13.1431 88.546 12.5725C88.4743 12.0018 87.9569 11.5969 87.3902 11.6681C86.8236 11.7392 86.4223 12.2595 86.494 12.8301C86.5656 13.4007 87.083 13.8056 87.6497 13.7345Z" fill="#AC946E"/>
<path d="M86.8035 155.935L81.2752 12.6613" stroke="#AC946E" stroke-width="0.160832" stroke-miterlimit="10"/>
<path d="M86.9392 157.862C87.5059 157.791 87.9071 157.271 87.8355 156.7C87.7639 156.129 87.2464 155.724 86.6798 155.796C86.1132 155.867 85.7119 156.387 85.7835 156.958C85.8552 157.528 86.3726 157.933 86.9392 157.862Z" fill="#AC946E"/>
<path d="M81.4055 13.6934C81.9722 13.6223 82.3734 13.1021 82.3018 12.5314C82.2302 11.9608 81.7127 11.5559 81.1461 11.6271C80.5795 11.6982 80.1782 12.2184 80.2498 12.7891C80.3215 13.3597 80.8389 13.7646 81.4055 13.6934Z" fill="#AC946E"/>
<g opacity="0.3">
<path d="M70.9292 -18.3564L97.3705 188.941" stroke="#84795A" stroke-width="0.160832" stroke-miterlimit="10"/>
<path d="M62.0625 -16.8164L106.343 187.371" stroke="#84795A" stroke-width="0.160832" stroke-miterlimit="10"/>
<path d="M53.3528 -14.5073L115.14 185.032" stroke="#84795A" stroke-width="0.160832" stroke-miterlimit="10"/>
<path d="M44.8872 -11.4209L123.71 181.914" stroke="#84795A" stroke-width="0.160832" stroke-miterlimit="10"/>
<path d="M36.7153 -7.61523L131.979 178.062" stroke="#84795A" stroke-width="0.160832" stroke-miterlimit="10"/>
<path d="M28.9043 -3.11816L139.869 173.518" stroke="#84795A" stroke-width="0.160832" stroke-miterlimit="10"/>
<path d="M21.5061 2.06689L147.347 168.273" stroke="#84795A" stroke-width="0.160832" stroke-miterlimit="10"/>
<path d="M20.9508 2.51641C21.7765 2.40988 22.3601 1.64948 22.2543 0.817999C22.1485 -0.0134794 21.3934 -0.601168 20.5678 -0.494641C19.7421 -0.388115 19.1585 0.372288 19.2643 1.20377C19.3701 2.03525 20.1252 2.62294 20.9508 2.51641Z" fill="#84795A"/>
<path d="M147.539 169.781C148.365 169.675 148.948 168.914 148.843 168.083C148.737 167.251 147.982 166.663 147.156 166.77C146.33 166.877 145.747 167.637 145.853 168.468C145.958 169.3 146.714 169.888 147.539 169.781Z" fill="#84795A"/>
<path d="M14.5957 7.87451L154.334 162.401" stroke="#84795A" stroke-width="0.160832" stroke-miterlimit="10"/>
<path d="M13.9408 8.39092C14.7665 8.28439 15.3501 7.52399 15.2443 6.69251C15.1385 5.86103 14.3834 5.27334 13.5578 5.37987C12.7321 5.4864 12.1485 6.2468 12.2543 7.07828C12.3601 7.90976 13.1152 8.49744 13.9408 8.39092Z" fill="#84795A"/>
<path d="M154.525 163.909C155.35 163.802 155.934 163.042 155.828 162.211C155.723 161.379 154.967 160.791 154.142 160.898C153.316 161.004 152.732 161.765 152.838 162.596C152.944 163.428 153.699 164.016 154.525 163.909Z" fill="#84795A"/>
<path d="M8.22046 14.2686L160.803 155.945" stroke="#84795A" stroke-width="0.160832" stroke-miterlimit="10"/>
<path d="M7.47306 14.847C8.29874 14.7404 8.88232 13.98 8.77654 13.1486C8.67076 12.3171 7.91566 11.7294 7.08999 11.8359C6.26431 11.9425 5.68072 12.7029 5.78651 13.5343C5.89229 14.3658 6.64739 14.9535 7.47306 14.847Z" fill="#84795A"/>
<path d="M160.991 157.454C161.817 157.347 162.401 156.587 162.295 155.755C162.189 154.924 161.434 154.336 160.608 154.443C159.783 154.549 159.199 155.31 159.305 156.141C159.411 156.973 160.166 157.56 160.991 157.454Z" fill="#84795A"/>
<path d="M2.40527 21.1909L166.671 148.947" stroke="#84795A" stroke-width="0.160832" stroke-miterlimit="10"/>
<path d="M1.5883 21.8655C2.41398 21.759 2.99757 20.9986 2.89178 20.1671C2.786 19.3356 2.0309 18.748 1.20522 18.8545C0.379547 18.961 -0.204041 19.7214 -0.0982574 20.5529C0.00752601 21.3844 0.762623 21.9721 1.5883 21.8655Z" fill="#84795A"/>
<path d="M166.862 150.453C167.688 150.347 168.271 149.586 168.166 148.755C168.06 147.924 167.305 147.336 166.479 147.442C165.653 147.549 165.07 148.309 165.176 149.141C165.281 149.972 166.037 150.56 166.862 150.453Z" fill="#84795A"/>
<path d="M-2.78223 28.6006L171.913 141.445" stroke="#84795A" stroke-width="0.160832" stroke-miterlimit="10"/>
<path d="M-7.31299 36.4419L176.493 133.53" stroke="#84795A" stroke-width="0.160832" stroke-miterlimit="10"/>
<path d="M-11.1392 44.6392L180.351 125.228" stroke="#84795A" stroke-width="0.160832" stroke-miterlimit="10"/>
<path d="M-14.2375 53.1519L183.491 116.619" stroke="#84795A" stroke-width="0.160832" stroke-miterlimit="10"/>
<path d="M-16.6062 61.9004L185.884 107.766" stroke="#84795A" stroke-width="0.160832" stroke-miterlimit="10"/>
<path d="M-18.1855 70.8213L187.487 98.7555" stroke="#84795A" stroke-width="0.160832" stroke-miterlimit="10"/>
<path d="M-19.0037 79.8501L188.319 89.6212" stroke="#84795A" stroke-width="0.160832" stroke-miterlimit="10"/>
<path d="M-19.0254 88.915L188.351 80.4539" stroke="#84795A" stroke-width="0.160832" stroke-miterlimit="10"/>
<path d="M-18.27 97.9471L187.58 71.32" stroke="#84795A" stroke-width="0.160832" stroke-miterlimit="10"/>
<path d="M-16.7405 106.879L186.022 62.287" stroke="#84795A" stroke-width="0.160832" stroke-miterlimit="10"/>
<path d="M-14.4505 115.644L183.696 53.4223" stroke="#84795A" stroke-width="0.160832" stroke-miterlimit="10"/>
<path d="M-11.3844 124.172L180.601 44.7949" stroke="#84795A" stroke-width="0.160832" stroke-miterlimit="10"/>
<path d="M-7.60399 132.403L176.78 36.4864" stroke="#84795A" stroke-width="0.160832" stroke-miterlimit="10"/>
<path d="M-3.13542 140.267L172.268 28.522" stroke="#84795A" stroke-width="0.160832" stroke-miterlimit="10"/>
<path d="M2.0085 147.719L167.055 20.9937" stroke="#84795A" stroke-width="0.160832" stroke-miterlimit="10"/>
<path d="M1.15446 149.98C1.98014 149.874 2.56373 149.113 2.45794 148.282C2.35216 147.45 1.59706 146.863 0.771385 146.969C-0.054291 147.076 -0.637878 147.836 -0.532095 148.668C-0.426311 149.499 0.328786 150.087 1.15446 149.98Z" fill="#84795A"/>
<path d="M167.252 22.4983C168.078 22.3918 168.662 21.6314 168.556 20.7999C168.45 19.9685 167.695 19.3808 166.869 19.4873C166.044 19.5938 165.46 20.3542 165.566 21.1857C165.672 22.0172 166.427 22.6049 167.252 22.4983Z" fill="#84795A"/>
<path d="M7.78324 154.678L161.232 13.9577" stroke="#84795A" stroke-width="0.160832" stroke-miterlimit="10"/>
<path d="M6.98771 157.033C7.81339 156.926 8.39698 156.166 8.29119 155.335C8.18541 154.503 7.43031 153.915 6.60464 154.022C5.77896 154.128 5.19537 154.889 5.30116 155.72C5.40694 156.552 6.16204 157.14 6.98771 157.033Z" fill="#84795A"/>
<path d="M161.419 15.4627C162.245 15.3562 162.828 14.5958 162.723 13.7643C162.617 12.9328 161.862 12.3451 161.036 12.4516C160.21 12.5582 159.627 13.3186 159.733 14.1501C159.838 14.9815 160.593 15.5692 161.419 15.4627Z" fill="#84795A"/>
<path d="M14.1302 161.115L154.818 7.46081" stroke="#84795A" stroke-width="0.160832" stroke-miterlimit="10"/>
<path d="M13.3991 163.546C14.2248 163.44 14.8084 162.679 14.7026 161.848C14.5968 161.016 13.8417 160.429 13.016 160.535C12.1903 160.642 11.6068 161.402 11.7125 162.234C11.8183 163.065 12.5734 163.653 13.3991 163.546Z" fill="#84795A"/>
<path d="M155.012 8.96514C155.838 8.85862 156.421 8.09821 156.315 7.26673C156.21 6.43525 155.454 5.84756 154.629 5.95409C153.803 6.06062 153.22 6.82102 153.325 7.6525C153.431 8.48398 154.186 9.07167 155.012 8.96514Z" fill="#84795A"/>
<path d="M21.0036 166.967L147.868 1.54704" stroke="#84795A" stroke-width="0.160832" stroke-miterlimit="10"/>
<path d="M20.3678 169.474C21.1935 169.367 21.7771 168.607 21.6713 167.776C21.5655 166.944 20.8104 166.356 19.9848 166.463C19.1591 166.569 18.5755 167.33 18.6813 168.161C18.7871 168.993 19.5422 169.58 20.3678 169.474Z" fill="#84795A"/>
<path d="M148.062 3.05205C148.887 2.94552 149.471 2.18512 149.365 1.35364C149.259 0.522166 148.504 -0.0655227 147.679 0.0410037C146.853 0.14753 146.269 0.907932 146.375 1.73941C146.481 2.57089 147.236 3.15858 148.062 3.05205Z" fill="#84795A"/>
<path d="M28.366 172.191L140.423 -3.73178" stroke="#84795A" stroke-width="0.160832" stroke-miterlimit="10"/>
<path d="M36.1462 176.739L132.559 -8.34172" stroke="#84795A" stroke-width="0.160832" stroke-miterlimit="10"/>
<path d="M44.2877 180.591L124.314 -12.2443" stroke="#84795A" stroke-width="0.160832" stroke-miterlimit="10"/>
<path d="M52.7422 183.729L115.764 -15.4068" stroke="#84795A" stroke-width="0.160832" stroke-miterlimit="10"/>
<path d="M61.4259 186.098L106.971 -17.8149" stroke="#84795A" stroke-width="0.160832" stroke-miterlimit="10"/>
<path d="M70.2891 187.707L98.0263 -19.4278" stroke="#84795A" stroke-width="0.160832" stroke-miterlimit="10"/>
<path d="M79.2545 188.527L88.9574 -20.2526" stroke="#84795A" stroke-width="0.160832" stroke-miterlimit="10"/>
<path d="M88.2563 188.553L79.8542 -20.2805" stroke="#84795A" stroke-width="0.160832" stroke-miterlimit="10"/>
</g>
<g filter="url(#filter0_f_55_14916)">
<circle cx="84.0777" cy="84.0779" r="53.7444" fill="black"/>
</g>
<g filter="url(#filter1_d_55_14916)">
<path d="M43.7703 84.4861C44.083 84.4861 44.3477 84.3778 44.5642 84.1613C44.7928 83.9327 44.9131 83.662 44.9251 83.3493V73.2985C44.889 72.8775 44.6905 72.5647 44.3297 72.3602C44.1492 72.264 43.9628 72.2158 43.7703 72.2158H43.5357V72.0354H48.6062C49.1355 72.0354 49.5986 71.9933 49.9956 71.9091C50.3926 71.8249 50.6512 71.7587 50.7715 71.7106V74.8684H50.573V74.6518C50.5851 74.1105 50.4287 73.6774 50.1039 73.3526C49.7911 73.0158 49.3641 72.8354 48.8227 72.8113H47.6318V78.0622H50.5009C50.946 78.0502 51.3129 77.8998 51.6016 77.6111C51.8903 77.3104 52.0346 76.9435 52.0346 76.5104V76.348H52.197V80.5163H52.0346V80.3719C52.0346 79.9268 51.8903 79.5599 51.6016 79.2712C51.3129 78.9825 50.952 78.8321 50.5189 78.8201H47.6318V83.8906H51.1505C52.0286 83.8906 52.7624 83.638 53.3519 83.1327C53.9534 82.6275 54.3985 81.9117 54.6872 80.9854H54.8676L54.0195 84.6665H43.5357V84.4861H43.7703ZM71.9199 86.5431C72.1244 86.6634 72.353 86.7717 72.6056 86.8679C72.8582 86.9762 73.0988 87.0484 73.3274 87.0845C73.568 87.1326 73.8266 87.1566 74.1033 87.1566C74.392 87.1566 74.6867 87.1205 74.9875 87.0484L75.0596 87.2288C74.386 87.5536 73.7063 87.716 73.0206 87.716C71.4447 87.716 69.8388 86.8439 68.2027 85.0996L59.6497 76.0232V83.4034C59.6497 83.7041 59.7579 83.9628 59.9745 84.1793C60.191 84.3838 60.4496 84.4861 60.7504 84.4861H61.0932V84.6665H55.6258V84.4861H55.9506C56.2633 84.4861 56.528 84.3838 56.7445 84.1793C56.961 83.9628 57.0693 83.6981 57.0693 83.3853V73.2624C56.4799 72.5888 56.0348 72.1196 55.734 71.8549C55.4333 71.5783 55.1686 71.3497 54.9401 71.1693C54.6995 70.9888 54.4709 70.8384 54.2544 70.7181C53.7491 70.4294 53.3461 70.261 53.0454 70.2129C52.7326 70.1648 52.4439 70.1407 52.1793 70.1407C51.9026 70.1407 51.6079 70.1949 51.2951 70.3031L51.2229 70.1227C51.8845 69.7377 52.5642 69.5453 53.2619 69.5453C54.7777 69.5453 56.3836 70.4475 58.0798 72.2519L66.1457 80.823V73.3165C66.1336 73.0038 66.0194 72.7451 65.8028 72.5406C65.5863 72.3241 65.3277 72.2158 65.0269 72.2158H64.7021V72.0354H70.1696V72.2158H69.8267C69.526 72.2158 69.2674 72.3241 69.0508 72.5406C68.8343 72.7451 68.72 72.9978 68.708 73.2985V83.5658L68.9967 83.8545C69.0689 83.9267 69.1771 84.053 69.3215 84.2334C69.4779 84.4019 69.6162 84.5462 69.7365 84.6665C69.8568 84.7988 70.0072 84.9612 70.1876 85.1537C70.3801 85.3462 70.5545 85.5146 70.7109 85.6589C70.8793 85.8033 71.0718 85.9597 71.2883 86.1281C71.5169 86.2965 71.7274 86.4349 71.9199 86.5431ZM78.2397 84.4861H78.4743V84.6665H72.9887V84.4861H73.2233C73.5361 84.4861 73.8007 84.3778 74.0173 84.1613C74.2458 83.9327 74.3661 83.662 74.3782 83.3493V72.7752L72.6639 72.8474C71.5332 72.8955 70.9678 73.3165 70.9678 74.1105C70.9678 74.4353 71.076 74.712 71.2926 74.9405C71.5211 75.1571 71.8339 75.2653 72.2309 75.2653C72.267 75.2653 72.3031 75.2653 72.3391 75.2653V75.3736C72.0986 75.4578 71.894 75.4999 71.7256 75.4999C71.1843 75.4999 70.7693 75.3075 70.4806 74.9225C70.2761 74.6579 70.1738 74.3571 70.1738 74.0203C70.1738 73.491 70.3843 73.0579 70.8054 72.7211C71.2144 72.3722 71.8519 72.1677 72.7181 72.1076C72.8745 72.0955 73.3797 72.0715 74.2338 72.0354C76.1826 71.9632 77.5961 71.8429 78.4743 71.6745L78.5103 71.8549C77.9931 71.9392 77.6262 72.1136 77.4096 72.3782C77.2051 72.6429 77.0969 73.0339 77.0848 73.5511V83.3493C77.0969 83.662 77.2111 83.9327 77.4277 84.1613C77.6562 84.3778 77.9269 84.4861 78.2397 84.4861ZM96.3297 88.2393C96.0289 88.2393 95.7342 88.2152 95.4455 88.1671C94.2786 87.9867 93.2862 87.5416 92.4681 86.8318C91.6501 86.1341 91.0607 85.262 90.6998 84.2154C89.569 84.6845 88.348 84.9191 87.0368 84.9191C84.8714 84.9191 83.0971 84.3056 81.7137 83.0786C80.3302 81.8516 79.6385 80.2757 79.6385 78.3509C79.6385 77.0638 79.9513 75.921 80.5769 74.9225C81.2144 73.924 82.1046 73.1541 83.2474 72.6128C84.3902 72.0595 85.6955 71.7828 87.1631 71.7828C88.1254 71.7828 89.0577 71.879 89.96 72.0715C90.8622 72.2519 91.59 72.4805 92.1433 72.7572L92.1794 75.8608H92.0351C91.7464 74.7661 91.187 73.9421 90.3569 73.3887C89.5389 72.8233 88.5525 72.5406 87.3977 72.5406C85.9782 72.5406 84.8173 73.088 83.9151 74.1827C83.0249 75.2653 82.5798 76.6668 82.5798 78.387C82.5798 80.0952 83.0189 81.4847 83.897 82.5553C84.7752 83.6259 85.906 84.1613 87.2894 84.1613C88.0352 84.1613 88.6788 83.9989 89.2201 83.6741C89.7735 83.3493 90.1464 82.9162 90.3389 82.3749V79.6321C90.3389 79.3675 90.2607 79.1629 90.1043 79.0186C89.9479 78.8742 89.7254 78.8021 89.4367 78.8021H89.148V78.6216H94.2185V78.8021H93.9478C93.647 78.8021 93.4185 78.8742 93.2621 79.0186C93.1057 79.1629 93.0335 79.3614 93.0456 79.6141V82.4831C93.0576 83.2771 93.208 84.0169 93.4967 84.7026C94.1342 86.1702 95.1929 87.0845 96.6725 87.4453C97.0695 87.5416 97.4785 87.5897 97.8995 87.5897C98.3326 87.5897 98.7717 87.5416 99.2168 87.4453L99.2529 87.6258C98.2183 88.0348 97.2439 88.2393 96.3297 88.2393ZM93.1778 70.8445C93.8635 70.5557 94.459 70.4114 94.9642 70.4114C95.4694 70.4114 95.9145 70.4595 96.2995 70.5557C96.6844 70.652 97.0754 70.8144 97.4724 71.0429C97.8814 71.2595 98.2603 71.5301 98.6092 71.8549C99.2828 72.4925 99.8542 73.2143 100.323 74.0203L103.932 80.7869L109.165 71.7828H109.328L111.204 82.3929C111.493 84.0289 111.992 85.3281 112.702 86.2905C113.412 87.2649 114.386 87.7521 115.625 87.7521C115.709 87.7521 115.787 87.7521 115.86 87.7521V87.9325C115.198 88.113 114.548 88.2032 113.911 88.2032C112.612 88.2032 111.427 87.692 110.356 86.6694C109.322 85.695 108.618 84.2695 108.245 82.3929L107.361 77.142L103.968 83.0245C103.511 83.7823 103.277 84.45 103.265 85.0274H103.102L98.6092 76.5104L97.725 83.7282C97.6889 84.0049 97.8092 84.2274 98.0859 84.3958C98.1942 84.468 98.3084 84.5041 98.4287 84.5041H98.7174V84.6665H94.9462V84.4861H95.2349C95.5476 84.4861 95.8243 84.3958 96.0649 84.2154C96.3175 84.0229 96.4739 83.7643 96.5341 83.4395L97.7611 74.8323C97.2198 73.8699 96.6002 73.0158 95.9025 72.27C95.1206 71.4279 94.3026 71.0069 93.4485 71.0069C93.3643 71.0069 93.2861 71.0129 93.2139 71.0249L93.1778 70.8445ZM130.075 87.9686C128.763 88.6303 127.434 88.7385 126.087 88.2934C124.655 87.8363 123.422 86.8619 122.388 85.3702C121.834 84.5763 121.359 83.656 120.962 82.6094L120.385 81.0757H116.126L115.17 83.3493C115.11 83.5056 115.08 83.632 115.08 83.7282C115.08 83.8244 115.098 83.9327 115.134 84.053C115.182 84.1613 115.272 84.2635 115.404 84.3597C115.549 84.444 115.705 84.4861 115.874 84.4861H116.018V84.6665H112.156V84.4861H112.319C112.596 84.4861 112.866 84.4079 113.131 84.2515C113.408 84.0831 113.636 83.8365 113.817 83.5117L117.84 74.327C117.371 73.2684 116.872 72.5406 116.343 72.1437C115.898 71.8068 115.471 71.6384 115.062 71.6384C114.665 71.6384 114.292 71.6986 113.943 71.8189L113.907 71.6384C114.773 71.1933 115.603 70.9708 116.397 70.9708C117.383 70.9708 118.268 71.3557 119.049 72.1256C119.819 72.8835 120.499 73.9782 121.088 75.4097L123.705 81.8696C124.691 84.3116 125.702 85.9898 126.736 86.904C127.157 87.2769 127.59 87.5356 128.036 87.6799C128.481 87.8243 128.854 87.8965 129.154 87.8965C129.467 87.8965 129.768 87.8604 130.057 87.7882L130.075 87.9686ZM116.433 80.2997H120.114L118.851 76.9615C118.791 76.7931 118.707 76.5645 118.598 76.2758C118.49 75.9751 118.418 75.7646 118.382 75.6443L116.433 80.2997Z" fill="url(#paint0_linear_55_14916)"/>
</g>
<path d="M52.735 93.99L54.5662 97.9884H53.5582L52.3934 95.0708L52.735 93.99ZM51.531 97.6132C51.5011 97.6878 51.4955 97.7513 51.5142 97.8036C51.5329 97.8558 51.5646 97.8969 51.6094 97.9268C51.6542 97.9529 51.699 97.966 51.7438 97.966H51.7942V98.022H50.5958V97.966C50.5958 97.966 50.6051 97.966 50.6238 97.966C50.6387 97.966 50.6462 97.966 50.6462 97.966C50.7321 97.966 50.8198 97.9398 50.9094 97.8876C51.0027 97.8316 51.0793 97.7401 51.139 97.6132H51.531ZM52.735 93.99L52.7574 94.6732L51.3686 98.0052H50.9598L52.4102 94.7236C52.4214 94.7012 52.4401 94.6601 52.4662 94.6004C52.4961 94.5369 52.5259 94.466 52.5558 94.3876C52.5894 94.3092 52.6193 94.2345 52.6454 94.1636C52.6715 94.0889 52.6846 94.031 52.6846 93.99H52.735ZM53.323 96.6892V96.9244H51.6766V96.6892H53.323ZM53.407 97.6132H54.387C54.4505 97.7401 54.527 97.8316 54.6166 97.8876C54.7062 97.9398 54.7939 97.966 54.8798 97.966C54.8798 97.966 54.8873 97.966 54.9022 97.966C54.9171 97.966 54.9246 97.966 54.9246 97.966V98.022H53.1438V97.966H53.1942C53.2689 97.966 53.3342 97.9361 53.3902 97.8764C53.4462 97.8129 53.4518 97.7252 53.407 97.6132ZM62.6179 96.3868L62.6683 97.35C62.5861 97.4881 62.476 97.6132 62.3379 97.7252C62.1997 97.8372 62.028 97.9286 61.8227 97.9996C61.6173 98.0668 61.3747 98.1004 61.0947 98.1004C60.6392 98.0966 60.2397 98.0145 59.8963 97.854C59.5565 97.6897 59.2933 97.4564 59.1067 97.154C58.92 96.8516 58.8267 96.4857 58.8267 96.0564C58.8267 95.6382 58.9181 95.278 59.1011 94.9756C59.284 94.6694 59.5453 94.4342 59.8851 94.27C60.2285 94.1057 60.6373 94.0236 61.1115 94.0236C61.4101 94.0236 61.6771 94.0534 61.9123 94.1132C62.1512 94.1729 62.3509 94.2457 62.5115 94.3316L62.5171 95.2892H62.4667C62.3659 94.9196 62.2016 94.6564 61.9739 94.4996C61.7461 94.339 61.4792 94.2588 61.1731 94.2588C60.8744 94.2588 60.6187 94.3316 60.4059 94.4772C60.1931 94.6228 60.0288 94.8281 59.9131 95.0932C59.7973 95.3582 59.7395 95.6756 59.7395 96.0452C59.7395 96.4148 59.7936 96.734 59.9019 97.0028C60.0139 97.2716 60.1707 97.4806 60.3723 97.63C60.5776 97.7793 60.8184 97.8577 61.0947 97.8652C61.3821 97.8652 61.6248 97.8185 61.8227 97.7252C62.0205 97.6318 62.1792 97.4769 62.2987 97.2604C62.4219 97.0438 62.5133 96.7526 62.5731 96.3868H62.6179ZM65.5822 94.102H66.3046C66.4726 94.102 66.6368 94.1206 66.7974 94.158C66.9579 94.1953 67.0998 94.255 67.223 94.3372C67.3499 94.4193 67.4507 94.5276 67.5254 94.662C67.6 94.7964 67.6374 94.9625 67.6374 95.1604C67.6374 95.3172 67.6038 95.474 67.5366 95.6308C67.4731 95.7838 67.3742 95.9164 67.2398 96.0284C67.1054 96.1366 66.9318 96.202 66.719 96.2244C66.8384 96.2617 66.9467 96.3289 67.0438 96.426C67.1446 96.523 67.2267 96.6201 67.2902 96.7172C67.2939 96.7246 67.3144 96.7582 67.3518 96.818C67.3928 96.8777 67.4414 96.9524 67.4974 97.042C67.5571 97.1278 67.6187 97.2156 67.6822 97.3052C67.7456 97.3948 67.8035 97.4732 67.8558 97.5404C67.9379 97.6412 68.0126 97.7233 68.0798 97.7868C68.147 97.8465 68.2179 97.8913 68.2926 97.9212C68.3672 97.9473 68.4531 97.9622 68.5502 97.966V98.022H68.0014C67.7998 98.022 67.6168 98.0052 67.4526 97.9716C67.2883 97.9342 67.1427 97.8726 67.0158 97.7868C66.8888 97.7009 66.7787 97.5852 66.6854 97.4396C66.6555 97.3948 66.6219 97.3388 66.5846 97.2716C66.551 97.2006 66.5155 97.126 66.4782 97.0476C66.4408 96.9692 66.4035 96.8945 66.3662 96.8236C66.3326 96.7489 66.3027 96.6817 66.2766 96.622C66.2504 96.5622 66.2318 96.5156 66.2206 96.482C66.172 96.3625 66.1142 96.2729 66.047 96.2132C65.9835 96.1534 65.9144 96.118 65.8398 96.1068V96.0508C65.851 96.0508 65.8734 96.0508 65.907 96.0508C65.9406 96.0508 65.976 96.0508 66.0134 96.0508C66.1142 96.0508 66.2112 96.0302 66.3046 95.9892C66.4016 95.9481 66.4875 95.8809 66.5622 95.7876C66.6368 95.6942 66.6891 95.5654 66.719 95.4012C66.7264 95.3676 66.732 95.3284 66.7358 95.2836C66.7432 95.2388 66.7451 95.1884 66.7414 95.1324C66.7302 94.8636 66.663 94.6676 66.5398 94.5444C66.4166 94.4174 66.2635 94.3521 66.0806 94.3484C66.0283 94.3446 65.9704 94.3446 65.907 94.3484C65.8472 94.3484 65.7912 94.3484 65.739 94.3484C65.6904 94.3484 65.6568 94.3484 65.6382 94.3484C65.6382 94.3446 65.6326 94.3241 65.6214 94.2868C65.6139 94.2457 65.6046 94.2046 65.5934 94.1636C65.5859 94.1225 65.5822 94.102 65.5822 94.102ZM65.655 94.102V98.022H64.815V94.102H65.655ZM64.8318 97.6132V98.022H64.3838V97.966C64.3875 97.966 64.3987 97.966 64.4174 97.966C64.4398 97.966 64.4528 97.966 64.4566 97.966C64.5536 97.966 64.6358 97.9324 64.703 97.8652C64.7739 97.7942 64.8112 97.7102 64.815 97.6132H64.8318ZM64.8318 94.5108H64.815C64.8112 94.4137 64.7739 94.3316 64.703 94.2644C64.6358 94.1934 64.5536 94.158 64.4566 94.158C64.4528 94.158 64.4398 94.158 64.4174 94.158C64.3987 94.158 64.3875 94.158 64.3838 94.158V94.102H64.8318V94.5108ZM65.6382 97.6132H65.655C65.655 97.7102 65.6904 97.7942 65.7614 97.8652C65.8323 97.9324 65.9163 97.966 66.0134 97.966C66.0208 97.966 66.0339 97.966 66.0526 97.966C66.0712 97.966 66.0806 97.966 66.0806 97.966V98.022H65.6382V97.6132ZM70.4387 94.1076L71.5867 96.1908L70.7915 96.2692L69.4811 94.1076H70.4387ZM71.6147 96.2188V98.022H70.7747V96.2188H71.6147ZM72.5163 94.1076H72.9531L71.5587 96.3308L71.2731 96.2748L72.5163 94.1076ZM72.2867 94.5052C72.3203 94.4529 72.3297 94.4006 72.3147 94.3484C72.2998 94.2924 72.2718 94.2476 72.2307 94.214C72.1897 94.1766 72.143 94.158 72.0907 94.158C72.0907 94.158 72.0795 94.158 72.0571 94.158C72.0347 94.158 72.0235 94.158 72.0235 94.158V94.102H73.3619V94.158H73.2835C73.1678 94.158 73.0577 94.1916 72.9531 94.2588C72.8523 94.326 72.7739 94.4025 72.7179 94.4884L72.2867 94.5052ZM70.6571 94.5052L69.7107 94.4884C69.6585 94.4025 69.5819 94.326 69.4811 94.2588C69.3803 94.1916 69.2702 94.158 69.1507 94.158H69.0723V94.102H70.9259V94.158C70.9259 94.158 70.9129 94.158 70.8867 94.158C70.8643 94.158 70.8531 94.158 70.8531 94.158C70.771 94.158 70.7075 94.1972 70.6627 94.2756C70.6217 94.3502 70.6198 94.4268 70.6571 94.5052ZM70.7915 97.6132V98.022H70.3435V97.966C70.3435 97.966 70.3547 97.966 70.3771 97.966C70.3995 97.966 70.4126 97.966 70.4163 97.966C70.5134 97.966 70.5955 97.9324 70.6627 97.8652C70.7337 97.7942 70.771 97.7102 70.7747 97.6132H70.7915ZM71.5979 97.6132H71.6147C71.6147 97.7102 71.6502 97.7942 71.7211 97.8652C71.7921 97.9324 71.8761 97.966 71.9731 97.966C71.9731 97.966 71.9843 97.966 72.0067 97.966C72.0291 97.966 72.0403 97.966 72.0403 97.966V98.022H71.5979V97.6132ZM75.8324 94.102H76.5044C76.8254 94.102 77.0849 94.1486 77.2828 94.242C77.4844 94.3353 77.6337 94.4641 77.7308 94.6284C77.8316 94.7889 77.8857 94.9718 77.8932 95.1772C77.9006 95.3676 77.8689 95.5412 77.798 95.698C77.727 95.8548 77.63 95.9854 77.5068 96.09C77.3836 96.1945 77.2417 96.271 77.0812 96.3196C76.9244 96.3644 76.7601 96.3756 76.5884 96.3532C76.4204 96.327 76.2561 96.2617 76.0956 96.1572V96.1012C76.0956 96.1012 76.118 96.1012 76.1628 96.1012C76.2113 96.1012 76.271 96.0937 76.342 96.0788C76.4166 96.0638 76.4932 96.0358 76.5716 95.9948C76.6537 95.9537 76.7302 95.8902 76.8012 95.8044C76.8721 95.7185 76.9262 95.6046 76.9636 95.4628C76.9785 95.4142 76.9878 95.3601 76.9916 95.3004C76.999 95.2369 77.0009 95.179 76.9972 95.1268C76.9934 94.8878 76.9281 94.6974 76.8012 94.5556C76.678 94.41 76.5025 94.3372 76.2748 94.3372H75.8884C75.8884 94.3372 75.8828 94.3185 75.8716 94.2812C75.8641 94.2401 75.8548 94.2009 75.8436 94.1636C75.8361 94.1225 75.8324 94.102 75.8324 94.102ZM75.9052 94.102V98.022H75.0652V94.102H75.9052ZM75.082 97.6132V98.022H74.634V97.966C74.6377 97.966 74.6489 97.966 74.6676 97.966C74.69 97.966 74.703 97.966 74.7068 97.966C74.8038 97.966 74.886 97.9324 74.9532 97.8652C75.0241 97.7942 75.0614 97.7102 75.0652 97.6132H75.082ZM75.082 94.5108H75.0652C75.0652 94.4137 75.0297 94.3316 74.9588 94.2644C74.8878 94.1934 74.8038 94.158 74.7068 94.158C74.703 94.158 74.6918 94.158 74.6732 94.158C74.6545 94.158 74.6433 94.158 74.6396 94.158L74.634 94.102H75.082V94.5108ZM75.8884 97.6132H75.9052C75.9089 97.7102 75.9444 97.7942 76.0116 97.8652C76.0825 97.9324 76.1665 97.966 76.2636 97.966C76.2673 97.966 76.2785 97.966 76.2972 97.966C76.3196 97.966 76.3326 97.966 76.3364 97.966V98.022H75.8884V97.6132ZM81.617 94.1188V98.022H80.777V94.1188H81.617ZM82.989 94.0964V94.3316H79.405V94.0964H82.989ZM82.989 94.3148V94.9756L82.933 94.97V94.9084C82.933 94.7329 82.8807 94.5948 82.7762 94.494C82.6754 94.3894 82.5373 94.3353 82.3618 94.3316V94.3148H82.989ZM82.989 93.9956V94.158L82.3058 94.0964C82.3879 94.0964 82.4738 94.0908 82.5634 94.0796C82.6567 94.0684 82.7426 94.0553 82.821 94.0404C82.8994 94.0254 82.9554 94.0105 82.989 93.9956ZM80.7938 97.6132V98.022H80.3458V97.966C80.3458 97.966 80.357 97.966 80.3794 97.966C80.4055 97.966 80.4186 97.966 80.4186 97.966C80.5157 97.966 80.5978 97.9324 80.665 97.8652C80.7359 97.7942 80.7733 97.7102 80.777 97.6132H80.7938ZM81.6002 97.6132H81.617C81.6207 97.7102 81.6562 97.7942 81.7234 97.8652C81.7943 97.9324 81.8783 97.966 81.9754 97.966C81.9754 97.966 81.9866 97.966 82.009 97.966C82.0351 97.966 82.0482 97.966 82.0482 97.966V98.022H81.6002V97.6132ZM80.0266 94.3148V94.3316C79.8549 94.3353 79.7167 94.3894 79.6122 94.494C79.5114 94.5948 79.461 94.7329 79.461 94.9084V94.97L79.405 94.9756V94.3148H80.0266ZM79.405 93.9956C79.4423 94.0105 79.4983 94.0254 79.573 94.0404C79.6514 94.0553 79.7373 94.0684 79.8306 94.0796C79.9239 94.0908 80.0098 94.0964 80.0882 94.0964L79.405 94.158V93.9956ZM85.7721 94.102V98.022H84.9321V94.102H85.7721ZM84.9489 97.6132V98.022H84.5009V97.966C84.5009 97.966 84.5121 97.966 84.5345 97.966C84.5607 97.966 84.5737 97.966 84.5737 97.966C84.6708 97.966 84.7529 97.9324 84.8201 97.8652C84.8911 97.7942 84.9284 97.7102 84.9321 97.6132H84.9489ZM84.9489 94.5108H84.9321C84.9284 94.4137 84.8911 94.3316 84.8201 94.2644C84.7529 94.1934 84.6708 94.158 84.5737 94.158C84.5737 94.158 84.5607 94.158 84.5345 94.158C84.5121 94.158 84.5009 94.158 84.5009 94.158V94.102H84.9489V94.5108ZM85.7553 97.6132H85.7721C85.7759 97.7102 85.8113 97.7942 85.8785 97.8652C85.9495 97.9324 86.0335 97.966 86.1305 97.966C86.1305 97.966 86.1417 97.966 86.1641 97.966C86.1865 97.966 86.1996 97.966 86.2033 97.966V98.022H85.7553V97.6132ZM85.7553 94.5108V94.102H86.2033V94.158C86.1996 94.158 86.1865 94.158 86.1641 94.158C86.1417 94.158 86.1305 94.158 86.1305 94.158C86.0335 94.158 85.9495 94.1934 85.8785 94.2644C85.8113 94.3316 85.7759 94.4137 85.7721 94.5108H85.7553ZM91.5692 96.3868L91.6196 97.35C91.5375 97.4881 91.4273 97.6132 91.2892 97.7252C91.1511 97.8372 90.9793 97.9286 90.774 97.9996C90.5687 98.0668 90.326 98.1004 90.046 98.1004C89.5905 98.0966 89.1911 98.0145 88.8476 97.854C88.5079 97.6897 88.2447 97.4564 88.058 97.154C87.8713 96.8516 87.778 96.4857 87.778 96.0564C87.778 95.6382 87.8695 95.278 88.0524 94.9756C88.2353 94.6694 88.4967 94.4342 88.8364 94.27C89.1799 94.1057 89.5887 94.0236 90.0628 94.0236C90.3615 94.0236 90.6284 94.0534 90.8636 94.1132C91.1025 94.1729 91.3023 94.2457 91.4628 94.3316L91.4684 95.2892H91.418C91.3172 94.9196 91.1529 94.6564 90.9252 94.4996C90.6975 94.339 90.4305 94.2588 90.1244 94.2588C89.8257 94.2588 89.57 94.3316 89.3572 94.4772C89.1444 94.6228 88.9801 94.8281 88.8644 95.0932C88.7487 95.3582 88.6908 95.6756 88.6908 96.0452C88.6908 96.4148 88.7449 96.734 88.8532 97.0028C88.9652 97.2716 89.122 97.4806 89.3236 97.63C89.5289 97.7793 89.7697 97.8577 90.046 97.8652C90.3335 97.8652 90.5761 97.8185 90.774 97.7252C90.9719 97.6318 91.1305 97.4769 91.25 97.2604C91.3732 97.0438 91.4647 96.7526 91.5244 96.3868H91.5692ZM99.8643 94.102V98.022H99.0243V94.102H99.8643ZM97.2099 94.102V98.022H96.3699V94.102H97.2099ZM99.0747 95.95V96.1908H97.1539V95.95H99.0747ZM96.3867 97.6132V98.022H95.9387V97.966C95.9387 97.966 95.9499 97.966 95.9723 97.966C95.9985 97.966 96.0115 97.966 96.0115 97.966C96.1086 97.966 96.1907 97.9324 96.2579 97.8652C96.3289 97.7942 96.3662 97.7102 96.3699 97.6132H96.3867ZM96.3867 94.5108H96.3699C96.3662 94.4137 96.3289 94.3316 96.2579 94.2644C96.1907 94.1934 96.1086 94.158 96.0115 94.158C96.0115 94.158 95.9985 94.158 95.9723 94.158C95.9499 94.158 95.9387 94.158 95.9387 94.158V94.102H96.3867V94.5108ZM97.1931 97.6132H97.2099C97.2137 97.7102 97.2491 97.7942 97.3163 97.8652C97.3873 97.9324 97.4713 97.966 97.5683 97.966C97.5683 97.966 97.5795 97.966 97.6019 97.966C97.6243 97.966 97.6374 97.966 97.6411 97.966V98.022H97.1931V97.6132ZM97.1931 94.5108V94.102H97.6411V94.158C97.6374 94.158 97.6243 94.158 97.6019 94.158C97.5795 94.158 97.5683 94.158 97.5683 94.158C97.4713 94.158 97.3873 94.1934 97.3163 94.2644C97.2491 94.3316 97.2137 94.4137 97.2099 94.5108H97.1931ZM99.0411 97.6132V98.022H98.5931V97.966C98.5969 97.966 98.6099 97.966 98.6323 97.966C98.6547 97.966 98.6659 97.966 98.6659 97.966C98.763 97.966 98.847 97.9324 98.9179 97.8652C98.9889 97.7942 99.0243 97.7102 99.0243 97.6132H99.0411ZM99.0411 94.5108H99.0243C99.0243 94.4137 98.9889 94.3316 98.9179 94.2644C98.847 94.1934 98.763 94.158 98.6659 94.158C98.6659 94.158 98.6547 94.158 98.6323 94.158C98.6099 94.158 98.5969 94.158 98.5931 94.158V94.102H99.0411V94.5108ZM99.8475 97.6132H99.8643C99.8681 97.7102 99.9035 97.7942 99.9707 97.8652C100.042 97.9324 100.126 97.966 100.223 97.966C100.223 97.966 100.234 97.966 100.256 97.966C100.282 97.966 100.296 97.966 100.296 97.966V98.022H99.8475V97.6132ZM99.8475 94.5108V94.102H100.296V94.158C100.296 94.158 100.282 94.158 100.256 94.158C100.234 94.158 100.223 94.158 100.223 94.158C100.126 94.158 100.042 94.1934 99.9707 94.2644C99.9035 94.3316 99.8681 94.4137 99.8643 94.5108H99.8475ZM103.176 94.102V96.566C103.176 96.831 103.219 97.0606 103.304 97.2548C103.394 97.4489 103.519 97.5982 103.68 97.7028C103.844 97.8073 104.038 97.8596 104.262 97.8596C104.49 97.8596 104.686 97.811 104.85 97.714C105.018 97.6132 105.147 97.4713 105.236 97.2884C105.326 97.1054 105.371 96.8889 105.371 96.6388V94.102H105.774V96.6052C105.774 96.9113 105.709 97.1764 105.578 97.4004C105.451 97.6244 105.266 97.798 105.024 97.9212C104.785 98.0406 104.495 98.1004 104.156 98.1004C103.76 98.1004 103.426 98.0406 103.153 97.9212C102.881 97.798 102.675 97.6262 102.537 97.406C102.403 97.182 102.336 96.9169 102.336 96.6108V94.102H103.176ZM102.352 94.102V94.438H102.336C102.336 94.3558 102.306 94.2886 102.246 94.2364C102.19 94.1841 102.121 94.158 102.039 94.158C102.039 94.158 102.024 94.158 101.994 94.158C101.964 94.158 101.949 94.158 101.949 94.158V94.102H102.352ZM103.562 94.102V94.158C103.562 94.158 103.547 94.158 103.517 94.158C103.487 94.158 103.472 94.158 103.472 94.158C103.39 94.158 103.319 94.1841 103.26 94.2364C103.204 94.2886 103.176 94.3558 103.176 94.438H103.164V94.102H103.562ZM105.388 94.102V94.438H105.371C105.371 94.3558 105.341 94.2886 105.281 94.2364C105.225 94.1841 105.156 94.158 105.074 94.158C105.074 94.158 105.059 94.158 105.029 94.158C104.999 94.158 104.984 94.158 104.984 94.158V94.102H105.388ZM106.16 94.102V94.158C106.16 94.158 106.145 94.158 106.116 94.158C106.086 94.158 106.071 94.158 106.071 94.158C105.989 94.158 105.918 94.1841 105.858 94.2364C105.802 94.2886 105.774 94.3558 105.774 94.438H105.763V94.102H106.16ZM108.068 94.018L111.641 97.4228L111.708 98.1004L108.135 94.7012L108.068 94.018ZM108.096 97.6244V98.022H107.631V97.966C107.631 97.966 107.648 97.966 107.681 97.966C107.715 97.966 107.734 97.966 107.737 97.966C107.831 97.966 107.911 97.9324 107.978 97.8652C108.045 97.798 108.079 97.7177 108.079 97.6244H108.096ZM108.88 97.6244C108.88 97.7177 108.913 97.798 108.981 97.8652C109.048 97.9324 109.128 97.966 109.221 97.966C109.225 97.966 109.244 97.966 109.277 97.966C109.311 97.966 109.328 97.966 109.328 97.966V98.022H108.863V97.6244H108.88ZM108.068 94.018L108.874 94.8748L108.88 98.022H108.079V94.718C108.079 94.5089 108.068 94.3409 108.045 94.214C108.023 94.0833 108.012 94.018 108.012 94.018H108.068ZM111.691 94.102V97.3836C111.691 97.5217 111.697 97.6468 111.708 97.7588C111.719 97.867 111.73 97.951 111.741 98.0108C111.753 98.0705 111.758 98.1004 111.758 98.1004H111.708L110.896 97.1932V94.102H111.691ZM112.139 94.102V94.158C112.139 94.158 112.122 94.158 112.089 94.158C112.055 94.158 112.038 94.158 112.038 94.158C111.945 94.158 111.865 94.1916 111.797 94.2588C111.73 94.3222 111.695 94.4025 111.691 94.4996H111.674V94.102H112.139ZM110.442 94.102H110.907V94.4996H110.896C110.892 94.4025 110.857 94.3222 110.789 94.2588C110.726 94.1916 110.646 94.158 110.549 94.158C110.549 94.158 110.532 94.158 110.498 94.158C110.465 94.158 110.446 94.158 110.442 94.158V94.102ZM115.803 94.1188V98.022H114.963V94.1188H115.803ZM117.175 94.0964V94.3316H113.591V94.0964H117.175ZM117.175 94.3148V94.9756L117.119 94.97V94.9084C117.119 94.7329 117.067 94.5948 116.962 94.494C116.861 94.3894 116.723 94.3353 116.548 94.3316V94.3148H117.175ZM117.175 93.9956V94.158L116.492 94.0964C116.574 94.0964 116.66 94.0908 116.749 94.0796C116.843 94.0684 116.928 94.0553 117.007 94.0404C117.085 94.0254 117.141 94.0105 117.175 93.9956ZM114.98 97.6132V98.022H114.532V97.966C114.532 97.966 114.543 97.966 114.565 97.966C114.591 97.966 114.604 97.966 114.604 97.966C114.701 97.966 114.784 97.9324 114.851 97.8652C114.922 97.7942 114.959 97.7102 114.963 97.6132H114.98ZM115.786 97.6132H115.803C115.807 97.7102 115.842 97.7942 115.909 97.8652C115.98 97.9324 116.064 97.966 116.161 97.966C116.161 97.966 116.172 97.966 116.195 97.966C116.221 97.966 116.234 97.966 116.234 97.966V98.022H115.786V97.6132ZM114.212 94.3148V94.3316C114.041 94.3353 113.903 94.3894 113.798 94.494C113.697 94.5948 113.647 94.7329 113.647 94.9084V94.97L113.591 94.9756V94.3148H114.212ZM113.591 93.9956C113.628 94.0105 113.684 94.0254 113.759 94.0404C113.837 94.0553 113.923 94.0684 114.016 94.0796C114.11 94.0908 114.196 94.0964 114.274 94.0964L113.591 94.158V93.9956Z" fill="#0FA3B1"/>
<circle cx="-0.466737" cy="61.9109" r="1.24444" fill="#AC946E"/>
<circle cx="168.622" cy="61.7557" r="1.24444" fill="#AC946E"/>
<circle cx="168.467" cy="69.6888" r="1.24444" fill="#AC946E"/>
<circle cx="168.467" cy="99.7112" r="1.24444" fill="#AC946E"/>
<circle cx="168.311" cy="107.489" r="1.24444" fill="#AC946E"/>
<path d="M-0.470379 108.432C0.214897 108.432 0.770422 107.873 0.770422 107.183C0.770422 106.493 0.214897 105.933 -0.470379 105.933C-1.15566 105.933 -1.71118 106.493 -1.71118 107.183C-1.71118 107.873 -1.15566 108.432 -0.470379 108.432Z" fill="#AC946E"/>
<path d="M-0.78117 100.966C-0.0958945 100.966 0.459631 100.406 0.459631 99.7163C0.459631 99.0262 -0.0958945 98.4668 -0.78117 98.4668C-1.46645 98.4668 -2.02197 99.0262 -2.02197 99.7163C-2.02197 100.406 -1.46645 100.966 -0.78117 100.966Z" fill="#AC946E"/>
<path d="M-0.78117 70.9434C-0.0958945 70.9434 0.459631 70.3839 0.459631 69.6939C0.459631 69.0038 -0.0958945 68.4443 -0.78117 68.4443C-1.46645 68.4443 -2.02197 69.0038 -2.02197 69.6939C-2.02197 70.3839 -1.46645 70.9434 -0.78117 70.9434Z" fill="#AC946E"/>
</g>
<defs>
<filter id="filter0_f_55_14916" x="-11.5112" y="-11.511" width="191.178" height="191.178" filterUnits="userSpaceOnUse" color-interpolation-filters="sRGB">
<feFlood flood-opacity="0" result="BackgroundImageFix"/>
<feBlend mode="normal" in="SourceGraphic" in2="BackgroundImageFix" result="shape"/>
<feGaussianBlur stdDeviation="20.9222" result="effect1_foregroundBlur_55_14916"/>
</filter>
<filter id="filter1_d_55_14916" x="43.2245" y="69.2343" width="87.1613" height="20.0377" filterUnits="userSpaceOnUse" color-interpolation-filters="sRGB">
<feFlood flood-opacity="0" result="BackgroundImageFix"/>
<feColorMatrix in="SourceAlpha" type="matrix" values="0 0 0 0 0 0 0 0 0 0 0 0 0 0 0 0 0 0 127 0" result="hardAlpha"/>
<feOffset/>
<feGaussianBlur stdDeviation="0.155556"/>
<feComposite in2="hardAlpha" operator="out"/>
<feColorMatrix type="matrix" values="0 0 0 0 0.729167 0 0 0 0 0.423828 0 0 0 0 0 0 0 0 1 0"/>
<feBlend mode="normal" in2="BackgroundImageFix" result="effect1_dropShadow_55_14916"/>
<feBlend mode="normal" in="SourceGraphic" in2="effect1_dropShadow_55_14916" result="shape"/>
</filter>
<linearGradient id="paint0_linear_55_14916" x1="82.8643" y1="64.6966" x2="82.8643" y2="95.6931" gradientUnits="userSpaceOnUse">
<stop offset="0.234375" stop-color="#FFD37C"/>
<stop offset="0.607292" stop-color="#D08123"/>
</linearGradient>
<clipPath id="clip0_55_14916">
<rect width="168" height="168" fill="white"/>
</clipPath>
</defs>
</svg>
