<svg width="157" height="157" viewBox="0 0 157 157" fill="none" xmlns="http://www.w3.org/2000/svg">
<path d="M24.5312 0C22.9024 0 21.2931 0.157 19.7526 0.471L21.6562 10.0872C22.6033 9.90226 23.5662 9.81024 24.5312 9.8125H29.0254V0H24.5312ZM47.0215 0H38.0234V9.8125H47.0215V0ZM65.0078 0H56.0098V9.8125H65.0078V0ZM82.9941 0H74.0059V9.8125H82.9941V0ZM100.99 0H91.9922V9.8125H100.99V0ZM118.977 0H109.979V9.8125H118.977V0ZM132.469 0H127.975V9.8125H132.469C133.45 9.8125 134.421 9.91063 135.344 10.0971L137.247 0.471C135.674 0.158725 134.073 0.00097586 132.469 0V0ZM152.869 10.8919C151.076 8.2175 148.775 5.9206 146.098 4.13106L140.643 12.2852C142.252 13.3646 143.635 14.7482 144.715 16.3574L152.859 10.9017L152.869 10.8919ZM10.8919 4.13106C8.2175 5.92448 5.9206 8.22472 4.13106 10.9017L12.2852 16.3574C13.3646 14.7482 14.7482 13.3646 16.3574 12.2852L10.8919 4.14087V4.13106ZM157 24.5312C157 22.9024 156.843 21.2931 156.529 19.7526L146.913 21.6562C147.089 22.5786 147.188 23.5402 147.188 24.5312V29.0254H157V24.5312ZM0.471 19.7526C0.158725 21.3263 0.00097586 22.9268 0 24.5312L0 29.0254H9.8125V24.5312C9.8125 23.55 9.91063 22.5786 10.0971 21.6562L0.471 19.7526ZM0 38.0234V47.0215H9.8125V38.0234H0ZM157 47.0215V38.0234H147.188V47.0215H157ZM0 56.0098V65.0078H9.8125V56.0098H0ZM157 65.0078V56.0098H147.188V65.0078H157ZM0 74.0059V82.9941H9.8125V74.0059H0ZM147.188 82.9941H157V74.0059H147.188V82.9941ZM0 91.9922V100.99H9.8125V91.9922H0ZM157 100.99V91.9922H147.188V100.99H157ZM0 109.979V118.977H9.8125V109.979H0ZM157 118.977V109.979H147.188V118.977H157ZM0 127.975V132.469C0 134.098 0.157 135.707 0.471 137.247L10.0872 135.344C9.90226 134.397 9.81024 133.434 9.8125 132.469V127.975H0ZM157 132.469V127.975H147.188V132.469C147.188 133.45 147.089 134.421 146.903 135.344L156.529 137.247C156.843 135.697 157 134.107 157 132.469ZM4.13106 146.108C5.92675 148.777 8.22287 151.073 10.9017 152.869L16.3574 144.715C14.7468 143.637 13.3632 142.253 12.2852 140.643L4.14087 146.098L4.13106 146.108ZM146.108 152.869C148.777 151.073 151.073 148.777 152.869 146.098L144.715 140.643C143.635 142.252 142.252 143.635 140.643 144.715L146.098 152.859L146.108 152.869ZM19.7526 156.529C21.3029 156.843 22.8926 157 24.5312 157H29.0254V147.188H24.5312C23.55 147.188 22.5786 147.089 21.6562 146.903L19.7526 156.529ZM132.469 157C134.098 157 135.707 156.843 137.247 156.529L135.344 146.913C134.397 147.098 133.434 147.19 132.469 147.188H127.975V157H132.469ZM38.0234 157H47.0215V147.188H38.0234V157ZM56.0098 157H65.0078V147.188H56.0098V157ZM74.0059 147.188V157H82.9941V147.188H74.0059ZM91.9922 157H100.99V147.188H91.9922V157ZM109.979 157H118.977V147.188H109.979V157ZM83.4062 44.1562C83.4062 42.855 82.8893 41.6071 81.9692 40.687C81.0491 39.7669 79.8012 39.25 78.5 39.25C77.1988 39.25 75.9509 39.7669 75.0308 40.687C74.1107 41.6071 73.5938 42.855 73.5938 44.1562V73.5938H44.1562C42.855 73.5938 41.6071 74.1107 40.687 75.0308C39.7669 75.9509 39.25 77.1988 39.25 78.5C39.25 79.8012 39.7669 81.0491 40.687 81.9692C41.6071 82.8893 42.855 83.4062 44.1562 83.4062H73.5938V112.844C73.5938 114.145 74.1107 115.393 75.0308 116.313C75.9509 117.233 77.1988 117.75 78.5 117.75C79.8012 117.75 81.0491 117.233 81.9692 116.313C82.8893 115.393 83.4062 114.145 83.4062 112.844V83.4062H112.844C114.145 83.4062 115.393 82.8893 116.313 81.9692C117.233 81.0491 117.75 79.8012 117.75 78.5C117.75 77.1988 117.233 75.9509 116.313 75.0308C115.393 74.1107 114.145 73.5938 112.844 73.5938H83.4062V44.1562Z" fill="#635353"/>
</svg>
