<svg width="33" height="33" viewBox="0 0 33 33" fill="none" xmlns="http://www.w3.org/2000/svg">
<path d="M23.2102 3.96003C23.0505 3.79996 22.8608 3.67297 22.652 3.58633C22.4432 3.49968 22.2194 3.45508 21.9933 3.45508C21.7672 3.45508 21.5434 3.49968 21.3345 3.58633C21.1257 3.67297 20.9361 3.79996 20.7764 3.96003L9.21266 15.5238C9.08519 15.651 8.98406 15.8021 8.91506 15.9684C8.84606 16.1348 8.81055 16.3131 8.81055 16.4931C8.81055 16.6732 8.84606 16.8515 8.91506 17.0179C8.98406 17.1842 9.08519 17.3353 9.21266 17.4625L20.7764 29.0263C21.4502 29.7 22.5364 29.7 23.2102 29.0263C23.8839 28.3525 23.8839 27.2663 23.2102 26.5925L13.1177 16.5L23.2239 6.39378C23.8839 5.72003 23.8839 4.63378 23.2102 3.96003Z" fill="#776969"/>
</svg>
