<svg width="24" height="24" viewBox="0 0 24 24" fill="none" xmlns="http://www.w3.org/2000/svg">
<path d="M8.14802 15.276L6.49802 16.376L6.08302 18.056L7.74802 17.636L8.85202 15.98L8.14802 15.276V15.276ZM9.60002 13.899L10.227 14.526L10.318 14.494C11.255 14.16 12.198 13.475 13.142 12.405C14.281 11.115 16.203 8.81804 18.899 5.52604C18.9323 5.48555 18.9494 5.43412 18.9468 5.38175C18.9443 5.32939 18.9224 5.27984 18.8853 5.24277C18.8482 5.2057 18.7987 5.18375 18.7463 5.18122C18.6939 5.17868 18.6425 5.19572 18.602 5.22904C15.316 7.92204 13.019 9.84504 11.721 10.987C10.645 11.933 9.96102 12.875 9.63302 13.806L9.60002 13.899V13.899ZM8.98502 19.385L3.34302 20.814L4.74302 15.143L7.74702 13.139C8.20002 11.863 9.08302 10.645 10.4 9.48604C11.72 8.32404 14.032 6.38904 17.336 3.68204C17.76 3.33154 18.2994 3.15173 18.8488 3.17777C19.3983 3.20381 19.9183 3.43382 20.3072 3.82284C20.6961 4.21186 20.9259 4.73193 20.9518 5.28139C20.9776 5.83085 20.7977 6.37021 20.447 6.79404C17.737 10.103 15.802 12.414 14.643 13.728C13.487 15.038 12.27 15.921 10.991 16.378L8.98602 19.385H8.98502Z" fill="black"/>
</svg>
